<svg xmlns="http://www.w3.org/2000/svg" xmlns:xlink="http://www.w3.org/1999/xlink" width="222" zoomAndPan="magnify" viewBox="0 0 166.5 193.499992" height="258" preserveAspectRatio="xMidYMid meet" version="1.0"><defs><filter x="0%" y="0%" width="100%" height="100%" id="ae7e2bccf4"><feColorMatrix values="0 0 0 0 1 0 0 0 0 1 0 0 0 0 1 0 0 0 1 0" color-interpolation-filters="sRGB"/></filter><clipPath id="b39142d676"><path d="M 0 16 L 164 16 L 164 192.960938 L 0 192.960938 Z M 0 16 " clip-rule="nonzero"/></clipPath><mask id="6ac6c39fac"><g filter="url(#ae7e2bccf4)"><rect x="-16.65" width="199.8" fill="#000000" y="-19.349999" height="232.19999" fill-opacity="0.6"/></g></mask><clipPath id="975cc138af"><path d="M 0.238281 2 L 163 2 L 163 175 L 0.238281 175 Z M 0.238281 2 " clip-rule="nonzero"/></clipPath><clipPath id="c533aef156"><rect x="0" width="164" y="0" height="177"/></clipPath><clipPath id="a69857436d"><path d="M 1 2 L 151 2 L 151 184.734375 L 1 184.734375 Z M 1 2 " clip-rule="nonzero"/></clipPath></defs><g clip-path="url(#b39142d676)"><g mask="url(#6ac6c39fac)"><g transform="matrix(1, 0, 0, 1, 0, 16)"><g clip-path="url(#c533aef156)"><g clip-path="url(#975cc138af)"><path fill="#e2b808" d="M 11.269531 152.394531 C 17.855469 159.015625 27.976562 161.898438 37.0625 159.738281 C 47.445312 157.269531 56.417969 148.808594 67.0625 149.507812 C 79.382812 150.320312 87.207031 162.660156 97.558594 169.394531 C 105.546875 174.59375 115.824219 176.445312 124.910156 173.558594 C 133.996094 170.675781 141.53125 162.839844 143.292969 153.472656 C 145.320312 142.714844 139.996094 131.6875 141.460938 120.835938 C 142.800781 110.917969 149.523438 102.730469 155.019531 94.363281 C 160.515625 85.996094 165.101562 75.609375 161.632812 66.214844 C 157.183594 54.15625 142.289062 50.15625 133.101562 41.164062 C 126.714844 34.910156 123.25 26.347656 118.648438 18.675781 C 114.046875 11.011719 107.300781 3.597656 98.425781 2.507812 C 84.074219 0.746094 73.480469 15.597656 59.875 20.492188 C 49.898438 24.082031 38.632812 22.109375 28.550781 25.390625 C 10.59375 31.234375 1.695312 51.960938 0.933594 70.828125 C 0.304688 86.324219 4.207031 101.390625 4.582031 116.792969 C 4.898438 129.738281 0.746094 141.8125 11.269531 152.394531 Z M 11.269531 152.394531 " fill-opacity="1" fill-rule="nonzero"/></g></g></g></g></g><g clip-path="url(#a69857436d)"><path fill="#000000" d="M 150.332031 124.101562 C 149.496094 119.558594 145.539062 118.316406 141.417969 118.476562 C 138.214844 118.335938 135.011719 118.273438 131.808594 118.132812 C 131.339844 108.617188 130.972656 99.101562 130.117188 89.605469 C 135.5625 89.078125 138.050781 83.433594 137.195312 78.503906 C 146.171875 79.15625 147.578125 77.054688 148.84375 68.5 C 150.046875 58.617188 149.25 48.53125 147.558594 38.75 C 146.679688 33.046875 144.519531 27.707031 137.683594 29.074219 C 133.195312 29.195312 128.6875 28.929688 124.199219 29.132812 C 122.136719 24.488281 116.855469 23.265625 112.222656 22.960938 C 104.554688 22.574219 96.882812 22.449219 89.210938 22.449219 C 88.96875 17.417969 88.90625 11.9375 85.949219 7.636719 C 82.910156 3.175781 76.6875 1.710938 71.769531 3.625 C 64.222656 6.457031 60.609375 14.933594 61.101562 22.574219 C 56.222656 22.65625 51.328125 22.796875 46.453125 22.941406 C 40.230469 23.019531 32.253906 23.042969 28.90625 29.335938 C 22.726562 29.234375 16.464844 28.808594 10.300781 29.335938 C 6.140625 31.539062 5.507812 42.335938 4.835938 46.777344 C 4.367188 55.03125 4.527344 63.382812 5.386719 71.617188 C 5.917969 79.378906 12.242188 77.953125 17.933594 78.035156 C 17.382812 82.191406 17.15625 88.667969 22.746094 89.097656 C 22.542969 98.550781 22.316406 108.003906 21.972656 117.460938 C 12.425781 117.5625 1.101562 115.871094 1.714844 129.011719 C 1.9375 132.273438 0 137.367188 3.898438 138.976562 C 3.101562 148.550781 3.101562 158.167969 3.082031 167.785156 C 2.917969 170.902344 4.140625 174.835938 7.691406 175.304688 C 11.730469 175.957031 15.890625 175.914062 19.910156 175.242188 C 21.257812 183.414062 30.070312 183.269531 36.597656 183.433594 C 43.738281 183.839844 50.898438 183.597656 58.039062 183.597656 C 77.765625 184.023438 97.515625 184.71875 117.261719 183.820312 C 123.382812 183.820312 132.09375 183.554688 133.5625 176.140625 C 144.273438 177.078125 147.375 172.246094 147.171875 162.183594 C 147.476562 155.234375 147.84375 148.265625 147.679688 141.320312 C 149.863281 141.320312 149.660156 138.730469 149.902344 137.183594 C 150.25 132.824219 151.046875 128.402344 150.332031 124.101562 Z M 147.476562 122.125 C 147.457031 122.085938 147.394531 121.984375 147.476562 122.125 Z M 144.476562 75.894531 C 144.457031 75.894531 144.457031 75.914062 144.4375 75.914062 C 144.496094 75.875 144.601562 75.8125 144.476562 75.894531 Z M 134.828125 30.925781 C 137.175781 31.128906 139.621094 30.417969 141.886719 31.027344 C 142.722656 31.355469 144.027344 32.902344 144.4375 34.105469 C 147.617188 44.476562 149.191406 64.199219 145.496094 74.425781 C 145.046875 75.730469 143.824219 76.484375 142.476562 76.585938 C 140.640625 76.792969 138.804688 76.667969 136.96875 76.648438 C 135.011719 60.9375 130.484375 45.761719 125.078125 30.925781 C 128.339844 30.84375 131.585938 30.925781 134.828125 30.925781 Z M 117.488281 25.773438 C 123.730469 27.382812 124.179688 35.183594 126.339844 40.21875 C 130.6875 53.09375 134.214844 66.359375 135.417969 79.929688 C 135.992188 87.835938 129.808594 87.957031 123.769531 88.730469 C 118.34375 89.546875 112.855469 89.484375 107.390625 89.648438 C 107.878906 67.949219 107.898438 46.25 106.941406 24.570312 C 110.511719 24.710938 114.082031 24.632812 117.488281 25.773438 Z M 110.042969 95.820312 C 110.042969 98.550781 110.019531 101.382812 109.410156 104.054688 C 109.410156 104.03125 109.347656 104.175781 109.308594 104.234375 C 104.105469 104.257812 98.800781 104.214844 93.597656 103.910156 C 93.210938 101.058594 93.3125 98.164062 93.535156 95.292969 C 93.558594 95.046875 93.640625 94.78125 93.84375 94.621094 C 98.332031 94.007812 103.0625 94.230469 107.59375 94.640625 C 108.042969 94.699219 108.492188 94.761719 108.9375 94.800781 C 109.203125 94.84375 109.429688 94.90625 109.652344 95.046875 C 109.878906 95.191406 110 95.476562 110.019531 95.738281 C 110.042969 95.761719 110.042969 95.800781 110.042969 95.820312 Z M 109.328125 104.214844 C 109.328125 104.195312 109.347656 104.15625 109.328125 104.214844 Z M 109.285156 104.257812 C 109.246094 104.277344 109.246094 104.277344 109.285156 104.257812 Z M 100.921875 113.425781 C 99.332031 112.160156 97.945312 110.429688 97.371094 108.453125 C 97.351562 108.414062 97.371094 108.332031 97.351562 108.289062 C 97.351562 108.3125 97.351562 108.3125 97.371094 108.332031 C 97.351562 107.515625 97.414062 106.722656 97.414062 105.90625 C 99.984375 105.96875 102.535156 106.027344 105.105469 106.050781 C 105.082031 106.621094 105.0625 107.171875 105.042969 107.742188 C 105.0625 108.921875 103.878906 110.472656 103.429688 111.101562 C 102.71875 112 101.902344 112.875 100.921875 113.425781 Z M 101.574219 113.019531 C 101.59375 112.996094 101.59375 112.996094 101.574219 113.019531 Z M 93.597656 103.890625 C 93.558594 103.847656 93.578125 103.871094 93.597656 103.890625 Z M 97.945312 24.347656 C 100.332031 24.386719 102.71875 24.425781 105.105469 24.507812 C 106.125 47.1875 106.042969 69.902344 105.492188 92.582031 C 102.859375 92.378906 100.226562 92.460938 97.597656 92.480469 C 97.921875 69.761719 98.003906 47.0625 97.945312 24.347656 Z M 62.9375 20.414062 C 62.8125 10.347656 72.789062 0.0585938 82.539062 6.660156 C 83.929688 7.738281 84.929688 9.207031 85.621094 10.816406 C 87.132812 14.484375 87.171875 18.539062 87.375 22.449219 C 86.007812 22.449219 84.621094 22.449219 83.253906 22.449219 C 83.132812 16.847656 82.722656 8.289062 75.503906 7.699219 C 67.832031 8.148438 66.363281 16.238281 66.382812 22.492188 C 65.242188 22.511719 64.097656 22.511719 62.9375 22.53125 C 62.894531 21.839844 62.894531 21.125 62.9375 20.414062 Z M 75.828125 9.554688 C 77.15625 9.738281 78.316406 10.53125 79.15625 11.550781 C 79.15625 11.550781 79.316406 11.753906 79.316406 11.753906 C 81.519531 14.851562 81.09375 18.84375 81.417969 22.429688 C 77.011719 22.429688 72.605469 22.429688 68.199219 22.472656 C 68.21875 21.105469 68.320312 19.71875 68.484375 18.355469 C 68.484375 18.355469 68.503906 18.253906 68.503906 18.191406 C 68.503906 18.132812 68.527344 18.050781 68.527344 18.070312 C 68.871094 16.074219 69.136719 13.871094 70.421875 12.242188 C 71.832031 10.796875 73.726562 9.351562 75.828125 9.554688 C 75.847656 9.554688 75.847656 9.554688 75.828125 9.554688 Z M 80.195312 13.300781 C 80.175781 13.242188 80.175781 13.242188 80.195312 13.300781 Z M 80.09375 24.285156 C 85.4375 24.265625 90.78125 24.242188 96.109375 24.304688 C 96.167969 46.105469 96.109375 67.929688 95.820312 89.730469 C 81.132812 89.667969 66.464844 88.976562 51.796875 88.851562 C 51.53125 67.378906 52.960938 45.941406 54.367188 24.527344 C 62.9375 24.324219 71.503906 24.324219 80.09375 24.285156 Z M 54.183594 102.648438 C 48.980469 103.054688 43.71875 103.359375 38.496094 103.460938 C 38.496094 103.441406 38.476562 103.421875 38.476562 103.421875 C 37.90625 100.609375 37.640625 96.878906 37.863281 94.4375 C 37.863281 94.394531 37.90625 94.332031 37.925781 94.292969 C 37.945312 94.273438 37.964844 94.253906 37.984375 94.230469 C 38.3125 93.90625 38.84375 93.886719 39.292969 93.824219 C 43.515625 93.417969 48.757812 92.929688 53.328125 93.292969 C 53.652344 93.335938 53.960938 93.457031 54.144531 93.742188 C 54.164062 93.722656 54.164062 93.785156 54.183594 93.824219 C 54.203125 93.867188 54.203125 93.867188 54.183594 93.84375 C 54.570312 96.699219 54.734375 99.816406 54.183594 102.648438 Z M 44.105469 110.835938 C 44.105469 110.835938 44.125 110.859375 44.125 110.859375 C 44.105469 110.859375 44.105469 110.835938 44.105469 110.835938 C 42.699219 109.226562 42.390625 107.210938 42.433594 105.152344 C 45.085938 105.03125 47.757812 104.886719 50.410156 104.726562 C 50.449219 105.457031 50.472656 106.191406 50.511719 106.925781 C 50.695312 109.433594 48.371094 111.550781 46.410156 112.8125 C 45.492188 112.386719 44.738281 111.652344 44.105469 110.835938 Z M 45.472656 112.242188 C 45.453125 112.222656 45.453125 112.222656 45.472656 112.242188 Z M 38.457031 103.441406 C 38.457031 103.441406 38.433594 103.421875 38.433594 103.421875 C 38.433594 103.421875 38.476562 103.441406 38.496094 103.460938 C 38.476562 103.441406 38.476562 103.441406 38.457031 103.441406 Z M 38.476562 103.441406 C 38.457031 103.441406 38.433594 103.421875 38.414062 103.421875 C 38.433594 103.421875 38.457031 103.441406 38.476562 103.441406 Z M 52.53125 24.589844 C 51.0625 46.800781 49.59375 69.027344 49.980469 91.296875 C 47.351562 91.257812 44.699219 91.523438 42.085938 91.726562 C 41.78125 69.355469 42.882812 46.980469 45.453125 24.753906 C 47.796875 24.710938 50.164062 24.652344 52.53125 24.589844 Z M 18.09375 76.179688 C 17.074219 76.160156 16.054688 76.140625 15.035156 76.140625 C 12.996094 76.058594 10.648438 76.6875 8.894531 75.363281 C 6.386719 73.183594 7.121094 68.050781 6.671875 64.933594 C 6.285156 54.277344 5.773438 43.191406 9.507812 33.003906 C 9.507812 33.003906 9.507812 33.027344 9.507812 33.027344 C 9.8125 32.332031 10.140625 31.597656 10.730469 31.109375 C 10.773438 31.070312 10.792969 31.070312 10.832031 31.070312 C 16.542969 30.765625 22.316406 30.96875 28.03125 31.109375 C 22.605469 45.578125 19.339844 60.796875 18.09375 76.179688 Z M 19.625 83.921875 C 19.6875 67.886719 23.03125 51.8125 28.070312 36.589844 C 30.253906 27.585938 34.394531 24.734375 43.597656 24.835938 C 41.148438 46.046875 40.027344 67.417969 40.210938 88.792969 C 34.761719 88.609375 29.335938 88.019531 23.929688 87.386719 C 21.765625 87.40625 19.851562 86.203125 19.625 83.921875 Z M 5 122.328125 C 4.957031 122.347656 4.9375 122.390625 5 122.328125 Z M 4.019531 136.9375 C 3.976562 136.917969 3.773438 136.714844 3.734375 136.652344 C 2.855469 134.777344 3.609375 132.496094 3.507812 130.480469 C 3.671875 128.136719 3.449219 125.710938 4.304688 123.492188 C 4.632812 122.308594 6.570312 120.660156 7.730469 120.292969 C 12.261719 118.90625 17.21875 119.253906 21.929688 119.230469 C 21.707031 125.386719 21.421875 131.539062 21.09375 137.691406 C 15.933594 137.386719 10.628906 137.773438 5.425781 137.40625 C 5.304688 137.386719 4.609375 137.242188 4.449219 137.164062 C 4.285156 137.101562 4.140625 137.039062 4.019531 136.9375 Z M 19.644531 173.410156 C 19.421875 173.449219 19.195312 173.492188 18.953125 173.511719 C 18.828125 173.53125 18.6875 173.550781 18.566406 173.574219 C 15.648438 173.980469 11.914062 174.019531 8.75 173.574219 C 6.628906 173.574219 5.203125 171.757812 5.039062 169.761719 C 4.734375 159.617188 5.019531 149.40625 5.710938 139.28125 C 10.792969 139.402344 15.933594 139.585938 20.992188 139.34375 C 20.625 150.710938 18.585938 162.058594 19.644531 173.410156 Z M 131.789062 175.773438 C 130.21875 182.558594 121.851562 181.722656 116.40625 181.988281 C 99.207031 182.640625 81.988281 182.414062 64.792969 181.824219 C 55.53125 181.5 46.25 182.070312 37.007812 181.578125 C 32.722656 181.171875 27.804688 181.988281 24.175781 179.214844 C 19.339844 174.632812 21.644531 163.28125 21.6875 157.070312 C 23.441406 134.511719 24.132812 111.898438 24.625 89.261719 C 29.824219 89.871094 35.027344 90.441406 40.25 90.585938 C 40.25 91.011719 40.269531 91.441406 40.269531 91.847656 C 34.945312 91.746094 36.007812 95.660156 36.128906 99.488281 C 36.597656 102.871094 35.988281 106.050781 40.617188 105.214844 C 40.414062 108.210938 41.554688 111.144531 43.820312 113.160156 C 44.699219 113.832031 45.800781 114.953125 46.984375 114.585938 C 50.714844 112.652344 53.183594 108.859375 52.285156 104.601562 C 53.53125 104.5 55.222656 104.746094 55.878906 103.402344 C 56.671875 101.097656 56.246094 98.53125 56.304688 96.148438 C 56.53125 92.886719 55.304688 91.09375 51.859375 91.339844 C 51.859375 91.113281 51.859375 90.890625 51.859375 90.667969 C 66.527344 90.789062 81.175781 91.480469 95.84375 91.542969 C 95.84375 91.847656 95.84375 92.152344 95.820312 92.460938 C 90.863281 92.03125 91.699219 96.414062 91.539062 99.875 C 91.761719 103.257812 90.964844 106.292969 95.578125 105.824219 C 95.046875 109.042969 96.636719 112.019531 98.984375 114.160156 C 99.617188 114.667969 100.308594 115.523438 101.226562 115.28125 C 104.613281 113.667969 107.246094 109.878906 106.960938 106.070312 C 108.347656 106.027344 110.246094 106.519531 111.019531 105.011719 C 111.878906 102.726562 111.695312 100.203125 111.898438 97.816406 C 112.386719 94.171875 110.9375 92.824219 107.367188 92.765625 C 107.390625 92.335938 107.390625 91.910156 107.390625 91.480469 C 114.40625 91.359375 121.425781 91.15625 128.339844 89.914062 C 129.585938 111.082031 131.257812 132.191406 131.871094 153.402344 C 131.542969 160.839844 132.765625 168.375 131.789062 175.773438 Z M 145.4375 160.429688 C 145.253906 169.742188 145.027344 175.160156 133.867188 174.304688 C 133.972656 163.242188 133.707031 152.136719 133.339844 141.074219 C 137.519531 140.910156 141.703125 141.074219 145.863281 141.214844 C 146.007812 147.613281 145.722656 154.03125 145.4375 160.429688 Z M 148.679688 129.5 C 148.457031 132.800781 148.351562 136.226562 147.722656 139.464844 C 142.886719 139.28125 138.050781 139.058594 133.195312 139.261719 C 132.707031 132.84375 132.175781 126.425781 131.890625 119.984375 C 136.03125 120.210938 140.214844 120.167969 144.355469 120.515625 C 148.640625 120.738281 149.109375 125.957031 148.679688 129.5 Z M 146.539062 43.925781 C 146.558594 43.96875 146.558594 44.007812 146.539062 43.925781 Z M 146.539062 43.863281 C 146.539062 43.84375 146.539062 43.84375 146.539062 43.863281 Z M 71.953125 5.5 C 71.914062 5.519531 71.832031 5.558594 71.953125 5.5 Z M 44.085938 110.835938 C 44.066406 110.816406 44.066406 110.796875 44.085938 110.835938 Z M 102.859375 116.992188 C 92.761719 116.523438 82.644531 116.929688 72.523438 116.910156 C 62.324219 116.808594 52.042969 115.6875 41.945312 117.417969 C 36.394531 117.828125 36.273438 123.386719 36.066406 127.730469 C 36.273438 130.785156 34.742188 138.203125 38.984375 138.609375 C 38.882812 147.328125 38.558594 156.03125 38.457031 164.75 C 38.046875 168.722656 37.984375 175.386719 43.574219 175.058594 C 64.894531 176.445312 86.316406 176.609375 107.613281 175.058594 C 111.835938 175.078125 113.265625 171.453125 113.265625 167.785156 C 114.039062 158.351562 114.386719 148.878906 114.285156 139.402344 C 115.773438 139.242188 116.628906 137.8125 116.671875 136.410156 C 116.9375 133.003906 116.835938 129.5625 116.589844 126.179688 C 116.386719 116.765625 110.347656 117.214844 102.859375 116.992188 Z M 112.222656 155.09375 C 112.0625 159.167969 111.816406 163.222656 111.488281 167.277344 C 111.367188 170.636719 110.878906 173.492188 106.816406 173.285156 C 98.902344 173.816406 90.988281 174.164062 83.070312 174.285156 C 70.015625 174.488281 56.957031 174.0625 43.941406 173.246094 C 43.085938 173.164062 42.128906 173.308594 41.433594 172.675781 C 39.375 170.292969 40.394531 166.808594 40.292969 163.957031 C 40.394531 155.5625 40.71875 147.167969 40.800781 138.75 C 50.757812 139.242188 60.691406 139.566406 70.667969 139.730469 C 70.605469 141.5625 70.546875 143.398438 70.484375 145.230469 C 65.363281 144.824219 66.28125 149.039062 66.097656 152.648438 C 66.324219 156.03125 65.527344 159.066406 70.136719 158.597656 C 69.605469 161.816406 71.199219 164.789062 73.542969 166.929688 C 74.175781 167.4375 74.871094 168.296875 75.789062 168.050781 C 79.175781 166.441406 81.804688 162.652344 81.519531 158.839844 C 85.191406 159.226562 85.96875 158.269531 86.214844 154.703125 C 86.292969 151.484375 87.96875 145.535156 82.949219 145.679688 C 83.113281 143.765625 83.277344 141.828125 83.378906 139.914062 C 93.066406 139.953125 102.757812 139.8125 112.449219 139.585938 C 112.507812 144.742188 112.429688 149.917969 112.222656 155.09375 Z M 72.910156 132.414062 C 73.238281 128.949219 74.953125 125.792969 77.847656 123.835938 C 80.050781 125.753906 80.992188 128.6875 81.378906 131.496094 C 81.929688 136.082031 81.5 140.828125 81.113281 145.433594 C 78.195312 145.128906 75.238281 145.210938 72.300781 145.230469 C 72.503906 140.953125 72.464844 136.671875 72.910156 132.414062 Z M 72.910156 132.433594 C 72.910156 132.476562 72.890625 132.496094 72.910156 132.433594 Z M 77.6875 123.675781 C 77.664062 123.652344 77.644531 123.632812 77.6875 123.675781 Z M 77.972656 123.734375 Z M 77.992188 123.714844 Z M 78.011719 123.714844 C 78.03125 123.695312 78.054688 123.714844 78.011719 123.714844 C 77.992188 123.714844 77.992188 123.714844 78.011719 123.714844 Z M 83.539062 147.554688 C 83.804688 147.59375 84.03125 147.65625 84.253906 147.796875 C 84.480469 147.941406 84.601562 148.226562 84.621094 148.492188 C 84.621094 148.511719 84.621094 148.53125 84.621094 148.570312 C 84.621094 151.300781 84.601562 154.132812 83.988281 156.804688 C 83.988281 156.785156 83.929688 156.925781 83.886719 156.988281 C 78.683594 157.007812 73.382812 156.964844 68.179688 156.660156 C 67.792969 153.808594 67.894531 150.914062 68.117188 148.042969 C 68.136719 147.796875 68.21875 147.53125 68.421875 147.371094 C 73.382812 146.699219 78.582031 146.984375 83.539062 147.554688 Z M 75.523438 166.195312 C 73.933594 164.933594 72.542969 163.203125 71.972656 161.226562 C 71.953125 161.183594 71.972656 161.101562 71.953125 161.0625 C 71.953125 161.082031 71.953125 161.082031 71.972656 161.101562 C 71.953125 160.289062 72.015625 159.492188 72.015625 158.679688 C 74.585938 158.738281 77.136719 158.800781 79.707031 158.820312 C 79.683594 159.390625 79.664062 159.941406 79.644531 160.511719 C 79.664062 161.695312 78.480469 163.242188 78.03125 163.875 C 77.320312 164.75 76.503906 165.625 75.523438 166.195312 Z M 76.175781 165.769531 C 76.195312 165.75 76.195312 165.75 76.175781 165.769531 Z M 68.199219 156.660156 C 68.160156 156.621094 68.179688 156.621094 68.199219 156.660156 Z M 114.855469 136.082031 C 114.9375 137.589844 114 137.8125 112.734375 137.691406 C 102.984375 137.957031 93.210938 138.078125 83.4375 138.039062 C 83.539062 133.148438 83.460938 127.730469 80.277344 123.714844 C 79.480469 122.777344 78.277344 121.207031 76.953125 122.1875 C 71.546875 125.546875 70.6875 132.070312 70.707031 137.894531 C 60.957031 137.734375 51.226562 137.40625 41.472656 136.957031 C 37.046875 137.222656 38.089844 135.328125 37.800781 131.90625 C 37.742188 128.949219 37.863281 125.957031 38.292969 123.042969 C 38.433594 120.089844 40.945312 119.128906 43.535156 118.988281 C 54.878906 117.398438 66.324219 118.988281 77.707031 118.722656 C 86.84375 118.582031 95.984375 118.4375 105.125 118.90625 C 107.367188 119.109375 109.796875 118.84375 111.898438 119.800781 C 116.121094 122.023438 114.753906 131.90625 114.855469 136.082031 Z M 41.1875 95.453125 C 39.453125 95.371094 39.636719 102.015625 41.3125 101.894531 C 44.675781 101.628906 48.0625 101.484375 51.429688 101.097656 C 52.757812 100.648438 52.0625 96.574219 51.859375 95.414062 C 51.449219 93.785156 42.921875 95.433594 41.1875 95.453125 Z M 50.289062 99.40625 C 49.777344 99.46875 49.246094 99.53125 48.714844 99.550781 C 46.472656 99.652344 44.230469 99.855469 41.984375 100 C 41.800781 99.121094 41.820312 98.207031 41.921875 97.308594 C 41.921875 97.308594 41.921875 97.246094 41.945312 97.207031 C 41.945312 97.1875 41.945312 97.1875 41.945312 97.167969 C 44.699219 96.820312 47.453125 96.59375 50.226562 96.554688 C 50.390625 97.511719 50.371094 98.46875 50.289062 99.40625 Z M 106.632812 96.105469 C 103.371094 95.882812 100.085938 95.945312 96.820312 96.125 C 95.046875 96.535156 95.394531 100.488281 95.699219 101.871094 C 96.128906 103.257812 100.777344 102.261719 102.1875 102.546875 C 103.777344 102.421875 105.632812 102.890625 107.101562 102.238281 C 107.695312 101.464844 108.308594 95.921875 106.632812 96.105469 Z M 105.675781 100.710938 C 104.511719 100.753906 103.351562 100.730469 102.1875 100.730469 C 100.574219 100.710938 98.964844 100.753906 97.332031 100.730469 C 97.25 99.792969 97.3125 98.835938 97.515625 97.917969 C 100.269531 97.777344 103.0625 97.738281 105.816406 97.878906 C 105.898438 98.835938 105.816406 99.773438 105.675781 100.710938 Z M 76.789062 155.316406 C 78.378906 155.195312 80.234375 155.664062 81.703125 155.011719 C 82.296875 154.238281 82.886719 148.695312 81.234375 148.855469 C 77.972656 148.632812 74.6875 148.695312 71.421875 148.878906 C 69.648438 149.285156 69.996094 153.238281 70.300781 154.625 C 70.75 156.03125 75.378906 155.03125 76.789062 155.316406 Z M 72.136719 150.671875 C 74.890625 150.527344 77.6875 150.488281 80.441406 150.628906 C 80.519531 151.566406 80.441406 152.523438 80.296875 153.441406 C 79.132812 153.484375 77.972656 153.460938 76.808594 153.460938 C 75.195312 153.441406 73.585938 153.484375 71.953125 153.460938 C 71.851562 152.546875 71.914062 151.585938 72.136719 150.671875 Z M 72.136719 150.671875 " fill-opacity="1" fill-rule="nonzero"/></g></svg>