<svg xmlns="http://www.w3.org/2000/svg" xmlns:xlink="http://www.w3.org/1999/xlink" width="281" zoomAndPan="magnify" viewBox="0 0 210.75 161.249994" height="215" preserveAspectRatio="xMidYMid meet" version="1.0"><defs><filter x="0%" y="0%" width="100%" height="100%" id="8f62621615"><feColorMatrix values="0 0 0 0 1 0 0 0 0 1 0 0 0 0 1 0 0 0 1 0" color-interpolation-filters="sRGB"/></filter><mask id="cf6ec6e23e"><g filter="url(#8f62621615)"><rect x="-21.075" width="252.9" fill="#000000" y="-16.124999" height="193.499993" fill-opacity="0.61"/></g></mask><clipPath id="55b1a28788"><path d="M 0.703125 2 L 147 2 L 147 137 L 0.703125 137 Z M 0.703125 2 " clip-rule="nonzero"/></clipPath><clipPath id="a211ef8ca9"><rect x="0" width="149" y="0" height="138"/></clipPath><clipPath id="e8d525ed29"><path d="M 0.363281 9 L 209.601562 9 L 209.601562 138.421875 L 0.363281 138.421875 Z M 0.363281 9 " clip-rule="nonzero"/></clipPath></defs><g mask="url(#cf6ec6e23e)"><g transform="matrix(1, 0, 0, 1, 30, 16)"><g clip-path="url(#a211ef8ca9)"><g clip-path="url(#55b1a28788)"><path fill="#a8bf20" d="M 3.285156 73.921875 C -6.773438 15.140625 17.015625 -15.777344 68.8125 13.777344 C 80.527344 20.460938 93.566406 18.289062 106.101562 14.929688 C 158.882812 -1.226562 166.734375 110.742188 91.109375 104.046875 C 77.457031 103.964844 66.621094 109.53125 55.972656 116.65625 C 42.457031 125.6875 28.609375 143.878906 11.875 132.808594 C -6.90625 120.804688 3.957031 89.507812 3.285156 73.921875 Z M 3.285156 73.921875 " fill-opacity="1" fill-rule="nonzero"/></g></g></g></g><g clip-path="url(#e8d525ed29)"><path fill="#000000" d="M 208.9375 125.679688 C 208.605469 125.398438 208.253906 125.136719 207.886719 124.902344 C 206.964844 124.300781 206.058594 123.675781 205.207031 122.984375 C 203.753906 121.800781 202.246094 120.683594 200.644531 119.703125 C 199.570312 119.050781 198.5 118.390625 197.441406 117.710938 C 193.9375 115.480469 190.425781 113.25 186.839844 111.140625 C 185.007812 110.0625 183.222656 108.898438 181.433594 107.753906 C 179.4375 106.476562 177.199219 105.636719 174.863281 105.246094 C 172.65625 104.871094 170.46875 104.371094 168.351562 103.632812 C 166.089844 102.84375 163.890625 101.941406 161.898438 100.5625 C 157.425781 97.453125 152.925781 94.382812 148.441406 91.296875 C 148.273438 91.179688 148.039062 90.996094 147.851562 90.859375 C 148.113281 90.683594 148.394531 90.546875 148.617188 90.421875 C 155.8125 86.46875 162.699219 82.027344 169.390625 77.28125 C 172.554688 75.035156 175.292969 72.945312 177.691406 69.898438 C 179.851562 67.152344 181.902344 64.304688 183.339844 61.109375 C 185.0625 57.300781 186.238281 53.53125 186.835938 49.40625 C 187.121094 47.421875 187.367188 45.433594 187.433594 43.429688 C 187.492188 41.667969 187.480469 39.902344 187.457031 38.140625 C 187.433594 36.410156 187.34375 34.675781 187.300781 32.941406 C 187.191406 28.765625 187.027344 24.59375 186.515625 20.445312 C 186.285156 18.601562 185.960938 16.773438 185.542969 14.960938 C 185.054688 12.855469 184.328125 10.632812 182.371094 9.445312 C 181.601562 8.976562 180.851562 8.960938 180.0625 9.300781 C 179.585938 9.503906 179.179688 9.8125 178.804688 10.15625 C 178.238281 10.691406 177.679688 11.234375 177.136719 11.789062 C 176.339844 12.597656 175.5625 13.425781 174.761719 14.234375 C 173.210938 15.804688 171.441406 17.066406 169.4375 17.996094 C 168.8125 18.289062 168.1875 18.574219 167.554688 18.839844 C 165.042969 19.902344 162.4375 20.691406 159.835938 21.492188 C 155.398438 22.859375 150.859375 23.808594 146.316406 24.714844 C 140.917969 25.789062 135.53125 26.902344 130.171875 28.164062 C 124.726562 29.4375 119.308594 30.828125 113.953125 32.429688 C 108.820312 33.960938 103.789062 35.792969 98.769531 37.648438 C 93.046875 39.769531 87.355469 41.953125 81.792969 44.480469 C 80.832031 44.914062 81.089844 44.953125 80.191406 44.34375 C 76.78125 42.019531 73.375 39.683594 69.953125 37.371094 C 68.121094 36.132812 66.28125 34.902344 64.347656 33.8125 C 64.230469 33.746094 64.058594 33.699219 64.066406 33.472656 C 64.226562 33.289062 64.402344 33.089844 64.582031 32.890625 C 65.1875 32.226562 65.796875 31.574219 66.398438 30.902344 C 66.738281 30.523438 67.039062 30.113281 67.25 29.644531 C 67.527344 29.035156 67.546875 28.425781 67.226562 27.832031 C 66.765625 26.972656 66.152344 26.246094 65.34375 25.695312 C 64.511719 25.136719 63.667969 25.121094 62.820312 25.667969 C 62.34375 25.976562 61.902344 26.34375 61.503906 26.746094 C 58.617188 29.664062 55.976562 32.789062 53.539062 36.089844 C 53.316406 36.390625 53.136719 36.722656 52.960938 37.054688 C 52.609375 37.71875 52.625 38.515625 52.980469 39.175781 C 53.351562 39.855469 53.820312 40.460938 54.421875 40.945312 C 55.429688 41.761719 56.40625 41.890625 57.671875 41.171875 C 58.136719 40.910156 58.542969 40.558594 58.894531 40.15625 C 59.648438 39.300781 60.394531 38.433594 60.988281 37.453125 C 61.097656 37.28125 61.167969 37.070312 61.421875 36.953125 C 66.027344 40.535156 70.917969 43.761719 75.8125 47.238281 C 75.339844 47.476562 74.996094 47.65625 74.648438 47.828125 C 69.835938 50.175781 65.070312 52.617188 60.382812 55.210938 C 52.457031 59.589844 44.9375 64.585938 37.820312 70.179688 C 35.703125 71.84375 33.617188 73.546875 31.839844 75.589844 C 31.652344 75.808594 31.46875 75.847656 31.210938 75.75 C 30.234375 75.382812 29.234375 75.058594 28.273438 74.652344 C 22.738281 72.285156 17.777344 69.054688 13.460938 64.855469 C 12.902344 64.3125 12.332031 63.785156 11.753906 63.265625 C 11.445312 62.984375 11.105469 62.738281 10.726562 62.558594 C 10.101562 62.265625 9.511719 62.316406 8.945312 62.703125 C 8.644531 62.910156 8.390625 63.167969 8.183594 63.460938 C 7.914062 63.855469 7.644531 64.253906 7.40625 64.664062 C 6.882812 65.566406 6.371094 66.484375 5.863281 67.394531 C 5.628906 67.8125 5.414062 68.238281 5.199219 68.667969 C 3.253906 72.554688 2.171875 76.710938 1.425781 80.960938 C 1.09375 82.859375 0.925781 84.785156 0.734375 86.703125 C 0.5 89 0.382812 91.308594 0.425781 93.617188 C 0.476562 96.34375 0.621094 99.066406 1.035156 101.769531 C 1.527344 105.019531 2.183594 108.238281 3.085938 111.402344 C 4.625 116.78125 7.449219 121.398438 11.363281 125.375 C 11.953125 125.972656 12.59375 126.511719 13.277344 126.996094 C 14.6875 128 16.242188 128.527344 17.984375 128.492188 C 19.449219 128.460938 20.917969 128.476562 22.382812 128.457031 C 23.011719 128.449219 23.640625 128.429688 24.269531 128.382812 C 26.117188 128.242188 27.964844 128.09375 29.816406 127.929688 C 31.21875 127.800781 32.617188 127.691406 34.015625 127.507812 C 36.359375 127.199219 38.695312 126.863281 41.03125 126.507812 C 44.195312 126.023438 47.355469 125.539062 50.511719 125.003906 C 54.34375 124.359375 58.171875 123.671875 61.988281 122.921875 C 65.917969 122.152344 69.832031 121.300781 73.714844 120.296875 C 80.183594 118.636719 86.527344 116.601562 92.8125 114.359375 C 102.558594 110.871094 112.191406 107.089844 121.742188 103.101562 C 128.644531 100.222656 135.515625 97.273438 142.171875 93.859375 C 142.253906 93.816406 142.335938 93.785156 142.410156 93.738281 C 142.652344 93.601562 142.867188 93.640625 143.078125 93.796875 C 143.246094 93.925781 143.425781 94.035156 143.59375 94.152344 C 148.566406 97.59375 153.519531 101.054688 158.511719 104.457031 C 159.917969 105.417969 161.128906 106.539062 162.179688 107.859375 C 162.546875 108.328125 162.929688 108.789062 163.285156 109.273438 C 164.644531 111.097656 165.910156 112.988281 166.957031 115.007812 C 167.828125 116.675781 168.992188 118.105469 170.445312 119.292969 C 171.347656 120.03125 172.253906 120.765625 173.1875 121.46875 C 175.699219 123.363281 178.339844 125.054688 181.007812 126.726562 C 185.980469 129.835938 190.992188 132.878906 195.910156 136.074219 C 196.636719 136.542969 197.398438 136.957031 198.164062 137.371094 C 198.757812 137.699219 199.394531 137.949219 200.0625 138.101562 C 200.589844 138.230469 201.125 138.335938 201.683594 138.238281 C 202.488281 138.09375 203.113281 137.667969 203.683594 137.117188 C 205.390625 135.464844 206.914062 133.671875 208.113281 131.613281 C 208.871094 130.308594 209.472656 128.976562 209.589844 127.433594 C 209.644531 126.699219 209.476562 126.132812 208.933594 125.683594 Z M 83.125 45.011719 C 88.230469 42.714844 93.453125 40.722656 98.703125 38.785156 C 103.726562 36.933594 108.761719 35.109375 113.890625 33.578125 C 119.308594 31.964844 124.78125 30.566406 130.289062 29.28125 C 135.707031 28.011719 141.15625 26.902344 146.617188 25.84375 C 151.195312 24.949219 155.757812 23.988281 160.230469 22.628906 C 162.917969 21.808594 165.613281 21 168.214844 19.933594 C 170.265625 19.089844 172.253906 18.117188 174.007812 16.734375 C 175.066406 15.898438 176.027344 14.957031 176.964844 13.988281 C 177.730469 13.191406 178.484375 12.382812 179.253906 11.582031 C 179.605469 11.21875 179.980469 10.867188 180.414062 10.597656 C 181.367188 9.996094 182.0625 10.691406 182.746094 11.398438 C 183.789062 12.476562 184.019531 14.179688 184.292969 15.59375 C 184.816406 18.328125 185.1875 21.09375 185.425781 23.871094 C 185.707031 27.125 185.953125 30.375 186.101562 33.628906 C 186.203125 35.867188 186.335938 38.109375 186.3125 40.351562 C 186.285156 42.957031 186.054688 45.546875 185.664062 48.117188 C 185.472656 49.386719 185.265625 50.652344 185.050781 51.921875 C 184.992188 52.285156 184.851562 52.871094 184.742188 53.226562 C 183.917969 55.851562 182.960938 58.433594 181.804688 60.929688 C 180.230469 64.335938 178.292969 67.527344 175.640625 70.234375 C 175.160156 70.726562 174.65625 71.199219 174.125 71.632812 C 171.613281 73.671875 168.96875 75.53125 166.320312 77.382812 C 160.128906 81.699219 153.769531 85.738281 147.144531 89.359375 C 146.148438 89.902344 146.363281 89.890625 145.484375 89.292969 C 135.847656 82.667969 126.207031 76.035156 116.566406 69.40625 C 116.347656 69.257812 116.132812 69.097656 115.832031 68.886719 C 116.210938 68.601562 116.570312 68.542969 116.90625 68.429688 C 124.179688 66.023438 131.351562 63.363281 138.441406 60.472656 C 146.070312 57.363281 153.5 53.839844 160.585938 49.628906 C 162.085938 48.734375 163.5625 47.535156 164.839844 46.351562 C 165.9375 45.332031 166.949219 44.230469 168.011719 43.179688 C 168.667969 42.527344 169.21875 41.769531 169.769531 41.027344 C 171.410156 38.820312 172.984375 36.558594 174.386719 34.1875 C 175.285156 32.667969 176.074219 31.089844 176.710938 29.445312 C 176.882812 29 177.039062 28.546875 177.175781 28.085938 C 177.507812 26.988281 177.566406 25.433594 177.019531 24.402344 C 176.402344 23.226562 174.667969 22.898438 173.457031 22.917969 C 172.585938 22.925781 171.730469 23.066406 170.875 23.214844 C 163.265625 24.5 155.726562 26.140625 148.203125 27.875 C 142.78125 29.125 137.375 30.425781 132 31.851562 C 125.464844 33.589844 118.996094 35.535156 112.554688 37.582031 C 106.460938 39.523438 100.375 41.519531 94.386719 43.773438 C 91.476562 44.867188 88.578125 45.996094 85.699219 47.179688 C 85.480469 47.265625 85.011719 47.457031 84.789062 47.550781 C 84.546875 47.660156 82.507812 45.832031 81.851562 45.464844 C 82.117188 45.332031 82.839844 45.160156 83.113281 45.039062 Z M 140.925781 38.570312 C 144.730469 39.617188 148.542969 40.652344 152.351562 41.679688 C 155.875 42.632812 159.414062 43.511719 163 44.183594 C 163.5 44.277344 163.992188 44.402344 164.484375 44.527344 C 164.726562 44.585938 164.789062 44.742188 164.628906 44.898438 C 163.761719 45.769531 162.851562 46.597656 161.835938 47.28125 C 161.265625 47.664062 160.65625 47.988281 160.066406 48.34375 C 159.820312 48.488281 159.574219 48.539062 159.296875 48.445312 C 159.042969 48.363281 158.777344 48.316406 158.519531 48.234375 C 153.902344 46.761719 149.210938 45.550781 144.558594 44.21875 C 139.382812 42.734375 134.21875 41.21875 129.050781 39.722656 C 126.152344 38.882812 123.246094 38.054688 120.34375 37.222656 C 120.121094 37.15625 119.898438 37.082031 119.464844 36.941406 C 119.78125 36.800781 119.914062 36.726562 120.054688 36.691406 C 122.234375 36.050781 124.417969 35.417969 126.597656 34.765625 C 126.867188 34.6875 127.15625 34.6875 127.429688 34.773438 C 131.890625 36.171875 136.421875 37.335938 140.929688 38.574219 Z M 128.769531 34.164062 C 129.101562 33.992188 129.449219 33.960938 129.625 33.917969 C 134.519531 32.554688 139.445312 31.320312 144.394531 30.167969 C 149.019531 29.09375 153.652344 28.027344 158.292969 27.015625 C 162.46875 26.105469 166.664062 25.277344 170.875 24.570312 C 171.761719 24.417969 172.636719 24.226562 173.539062 24.214844 C 174.210938 24.199219 174.835938 24.363281 175.445312 24.636719 C 175.9375 24.855469 176.175781 25.222656 176.25 25.730469 C 176.324219 26.269531 176.296875 26.800781 176.167969 27.328125 C 175.988281 28.027344 175.746094 28.699219 175.46875 29.359375 C 174.71875 31.152344 173.851562 32.890625 172.84375 34.558594 C 171.050781 37.53125 169.007812 40.328125 166.644531 42.882812 C 166.542969 42.992188 166.429688 43.09375 166.339844 43.210938 C 165.949219 43.734375 165.5 43.796875 164.855469 43.640625 C 157.699219 41.9375 150.636719 39.898438 143.554688 37.929688 C 139.496094 36.800781 135.433594 35.679688 131.332031 34.707031 C 130.605469 34.535156 129.554688 34.339844 128.773438 34.164062 Z M 126.714844 40.289062 C 134.566406 42.617188 142.425781 44.914062 150.320312 47.09375 C 152.773438 47.773438 155.210938 48.488281 157.6875 49.039062 C 157.886719 49.082031 158.074219 49.160156 158.289062 49.230469 C 158.148438 49.523438 157.875 49.589844 157.652344 49.722656 C 152.667969 52.589844 147.515625 55.113281 142.230469 57.371094 C 141.320312 57.757812 140.40625 58.128906 139.511719 58.539062 C 139.074219 58.742188 138.675781 58.730469 138.226562 58.59375 C 133.980469 57.25 129.730469 55.910156 125.480469 54.585938 C 115.746094 51.554688 106.015625 48.53125 96.191406 45.792969 C 95.628906 45.640625 95.042969 45.546875 94.492188 45.269531 C 94.683594 44.984375 94.96875 44.964844 95.207031 44.875 C 97.542969 44.035156 99.875 43.183594 102.222656 42.382812 C 107.171875 40.695312 112.167969 39.140625 117.15625 37.558594 C 117.597656 37.417969 117.992188 37.433594 118.445312 37.601562 C 121.164062 38.617188 123.9375 39.460938 126.71875 40.289062 Z M 106.75 50.332031 C 113.972656 52.464844 121.160156 54.703125 128.335938 56.976562 C 130.898438 57.792969 133.460938 58.605469 136.050781 59.316406 C 136.246094 59.367188 136.515625 59.484375 137.003906 59.578125 C 136.503906 59.722656 136.179688 59.890625 135.933594 59.984375 C 133.539062 60.921875 131.140625 61.832031 128.75 62.777344 C 128.21875 62.988281 127.734375 62.988281 127.195312 62.8125 C 123.453125 61.570312 119.707031 60.335938 115.949219 59.128906 C 107.332031 56.359375 98.703125 53.609375 90.082031 50.855469 C 89.566406 50.691406 89.078125 50.480469 88.636719 50.15625 C 88.007812 49.699219 87.363281 49.269531 86.726562 48.824219 C 86.585938 48.726562 86.445312 48.640625 86.195312 48.496094 C 86.433594 48.371094 86.5625 48.253906 86.691406 48.203125 C 88.46875 47.492188 90.246094 46.789062 92.019531 46.074219 C 92.3125 45.957031 92.574219 45.933594 92.882812 46.042969 C 97.441406 47.671875 102.113281 48.949219 106.757812 50.320312 Z M 126.300781 63.71875 C 126.027344 63.816406 125.6875 63.910156 125.488281 63.980469 C 123.773438 64.59375 122.054688 65.203125 120.332031 65.796875 C 118.550781 66.410156 116.753906 66.988281 114.984375 67.625 C 114.496094 67.796875 114.152344 67.726562 113.746094 67.441406 C 110.203125 64.992188 106.652344 62.554688 103.097656 60.113281 C 100.015625 57.992188 96.9375 55.875 93.859375 53.75 C 93.613281 53.582031 92.828125 53.101562 92.222656 52.726562 C 103.332031 56.234375 115.316406 60.351562 126.300781 63.714844 Z M 33.535156 75.320312 C 34.964844 74.09375 36.15625 72.921875 37.625 71.738281 C 44.832031 65.917969 52.503906 60.785156 60.613281 56.300781 C 65.695312 53.492188 70.847656 50.835938 76.0625 48.296875 C 76.222656 48.214844 76.390625 48.152344 76.550781 48.066406 C 76.726562 47.972656 76.882812 47.96875 77.054688 48.085938 C 77.8125 48.613281 78.664062 49.1875 79.5 49.765625 C 79.214844 49.882812 78.742188 50.101562 78.441406 50.234375 C 67.984375 54.855469 58.070312 60.425781 48.71875 67.003906 C 44.882812 69.703125 41.183594 72.574219 37.753906 75.789062 C 37.429688 76.09375 37.132812 76.425781 36.820312 76.746094 C 36.554688 77.027344 36.296875 77.140625 35.921875 77.042969 C 35.027344 76.804688 34.121094 76.597656 33.222656 76.367188 C 33.027344 76.316406 32.921875 76.269531 32.765625 76.195312 C 32.914062 75.898438 33.296875 75.53125 33.542969 75.320312 Z M 85.671875 71.0625 C 77.992188 68.894531 70.292969 66.773438 62.554688 64.808594 C 60.757812 64.355469 56.765625 63.386719 56.839844 63.320312 C 56.949219 63.222656 57.074219 63.132812 57.203125 63.054688 C 59.785156 61.425781 62.410156 59.875 65.074219 58.386719 C 65.402344 58.203125 65.695312 58.132812 66.085938 58.273438 C 70.746094 59.902344 75.511719 61.199219 80.25 62.5625 C 87.398438 64.625 94.527344 66.789062 101.636719 68.980469 C 102.921875 69.378906 104.210938 69.765625 105.5 70.160156 C 105.808594 70.253906 106.109375 70.378906 106.417969 70.472656 C 105.351562 70.796875 104.289062 71.132812 103.226562 71.445312 C 100.585938 72.21875 97.933594 72.953125 95.253906 73.566406 C 94.992188 73.625 94.75 73.683594 94.46875 73.597656 C 91.539062 72.742188 88.613281 71.890625 85.675781 71.0625 Z M 92.414062 74.210938 C 91.65625 74.378906 90.90625 74.570312 90.148438 74.730469 C 87.105469 75.367188 84.0625 76.007812 81.011719 76.625 C 78.375 77.160156 75.714844 77.550781 73.039062 77.855469 C 67.613281 78.464844 62.175781 78.617188 56.722656 78.472656 C 53.496094 78.390625 50.265625 78.203125 47.039062 78.0625 C 46.347656 78.035156 45.660156 78.011719 44.976562 78.003906 C 43.085938 77.980469 41.214844 77.824219 39.339844 77.617188 C 39.046875 77.585938 38.664062 77.484375 38.332031 77.410156 C 38.246094 77.390625 38.214844 77.285156 38.28125 77.222656 C 38.480469 77.027344 38.625 76.925781 38.78125 76.785156 C 40.589844 75.171875 42.441406 73.609375 44.339844 72.105469 C 47.789062 69.375 51.386719 66.851562 55.054688 64.425781 C 55.53125 64.113281 55.9375 64.066406 56.476562 64.214844 C 60.589844 65.371094 64.710938 66.503906 68.832031 67.632812 C 74.507812 69.195312 80.191406 70.746094 85.867188 72.3125 C 87.828125 72.851562 89.777344 73.421875 91.730469 73.976562 C 91.964844 74.042969 92.179688 74.164062 92.417969 74.210938 Z M 95.679688 65.898438 C 86.800781 63.144531 77.867188 60.550781 68.871094 58.191406 C 68.234375 58.019531 67.597656 57.871094 66.960938 57.707031 C 66.90625 57.695312 66.851562 57.652344 66.828125 57.609375 C 66.773438 57.503906 66.855469 57.441406 66.929688 57.398438 C 67.109375 57.292969 67.292969 57.183594 67.476562 57.085938 C 71.597656 54.894531 75.8125 52.894531 80.082031 51.003906 C 80.214844 50.945312 80.351562 50.882812 80.492188 50.828125 C 80.699219 50.746094 80.902344 50.746094 81.089844 50.878906 C 81.257812 51 81.433594 51.113281 81.609375 51.230469 C 90.125 57.113281 98.644531 63 107.15625 68.882812 C 107.417969 69.0625 107.992188 69.472656 108.480469 69.757812 C 107.808594 69.714844 107.390625 69.5 107.167969 69.429688 C 103.339844 68.25 99.503906 67.082031 95.679688 65.894531 Z M 140.175781 93.015625 C 135.871094 95.167969 131.488281 97.167969 127.058594 99.0625 C 115.703125 103.925781 104.238281 108.511719 92.613281 112.6875 C 86.84375 114.757812 81.011719 116.660156 75.09375 118.261719 C 70.589844 119.484375 66.039062 120.507812 61.460938 121.417969 C 57.648438 122.175781 53.824219 122.855469 49.992188 123.507812 C 46.804688 124.046875 43.613281 124.527344 40.417969 125.015625 C 38.078125 125.371094 35.746094 125.71875 33.398438 126.015625 C 31.4375 126.261719 29.46875 126.4375 27.507812 126.617188 C 25.777344 126.78125 24.046875 126.921875 22.316406 127.0625 C 21.09375 127.160156 19.867188 127.21875 18.644531 127.03125 C 18.054688 126.941406 17.453125 126.960938 16.859375 126.847656 C 15.992188 126.679688 15.199219 126.359375 14.460938 125.882812 C 13.675781 125.378906 12.980469 124.769531 12.332031 124.101562 C 8.640625 120.292969 5.988281 115.886719 4.546875 110.765625 C 3.765625 107.972656 3.171875 105.136719 2.714844 102.273438 C 2.160156 98.78125 1.972656 95.265625 2.027344 91.734375 C 2.058594 89.550781 2.265625 87.378906 2.476562 85.210938 C 2.664062 83.332031 2.914062 81.472656 3.265625 79.625 C 3.996094 75.824219 5.054688 72.128906 6.65625 68.601562 C 7.164062 67.484375 7.75 66.410156 8.351562 65.34375 C 8.648438 64.824219 9.003906 64.335938 9.460938 63.9375 C 9.757812 63.671875 9.941406 63.652344 10.261719 63.878906 C 10.578125 64.101562 10.882812 64.339844 11.167969 64.609375 C 11.675781 65.070312 12.164062 65.5625 12.660156 66.039062 C 18.425781 71.558594 25.117188 75.492188 32.769531 77.78125 C 35.035156 78.460938 37.351562 78.902344 39.707031 79.160156 C 41.582031 79.367188 43.46875 79.449219 45.351562 79.503906 C 47.472656 79.5625 49.597656 79.703125 51.71875 79.777344 C 53.636719 79.847656 55.554688 79.875 57.464844 79.933594 C 60.519531 80.023438 63.574219 79.933594 66.625 79.796875 C 69.464844 79.671875 72.292969 79.386719 75.113281 78.996094 C 79.441406 78.398438 83.707031 77.46875 87.972656 76.53125 C 91.449219 75.769531 94.921875 75.011719 98.371094 74.121094 C 101.816406 73.234375 105.234375 72.246094 108.621094 71.148438 C 108.761719 71.101562 108.910156 71.074219 109.046875 71.011719 C 109.589844 70.757812 110.035156 70.859375 110.535156 71.207031 C 113.910156 73.585938 117.3125 75.929688 120.707031 78.28125 C 127.269531 82.832031 133.832031 87.382812 140.398438 91.941406 C 140.617188 92.089844 140.867188 92.210938 141.085938 92.527344 C 140.742188 92.707031 140.460938 92.871094 140.171875 93.015625 Z M 206.664062 131.609375 C 205.957031 132.816406 205.011719 133.851562 204.027344 134.835938 C 203.25 135.617188 202.375 136.820312 201.171875 136.839844 C 200.671875 136.84375 200.246094 136.695312 199.824219 136.542969 C 199.058594 136.269531 198.347656 135.890625 197.652344 135.472656 C 196.578125 134.820312 195.515625 134.148438 194.453125 133.484375 C 190.664062 131.136719 186.871094 128.796875 183.089844 126.4375 C 180.296875 124.695312 177.515625 122.933594 174.859375 120.984375 C 173.519531 120.003906 172.210938 118.980469 170.960938 117.878906 C 169.84375 116.898438 168.921875 115.722656 168.203125 114.421875 C 167.277344 112.734375 166.273438 111.09375 165.1875 109.5 C 163.425781 106.933594 161.207031 104.710938 158.644531 102.9375 C 152.980469 99.027344 147.316406 95.113281 141.652344 91.203125 C 135.957031 87.273438 130.269531 83.339844 124.582031 79.402344 C 107.179688 67.378906 89.785156 55.339844 72.382812 43.320312 C 69.722656 41.480469 67.035156 39.691406 64.347656 37.890625 C 63.429688 37.273438 62.480469 36.707031 61.5 36.191406 C 61.179688 36.019531 60.933594 36.042969 60.6875 36.269531 C 60.425781 36.511719 60.171875 36.769531 59.929688 37.03125 C 59.335938 37.664062 58.753906 38.308594 58.160156 38.941406 C 57.8125 39.308594 57.445312 39.667969 57.003906 39.9375 C 56.34375 40.339844 55.792969 40.300781 55.191406 39.816406 C 54.769531 39.46875 54.4375 39.042969 54.140625 38.585938 C 53.925781 38.246094 53.921875 37.816406 54.113281 37.464844 C 54.234375 37.238281 54.351562 37.003906 54.5 36.789062 C 54.835938 36.292969 55.171875 35.800781 55.539062 35.328125 C 57.519531 32.757812 59.652344 30.308594 61.921875 27.976562 C 62.292969 27.589844 62.695312 27.242188 63.121094 26.917969 C 63.949219 26.292969 64.222656 26.199219 65.207031 27.03125 C 65.570312 27.339844 65.863281 27.722656 66.132812 28.121094 C 66.4375 28.570312 66.449219 29.019531 66.144531 29.457031 C 65.90625 29.800781 65.652344 30.136719 65.371094 30.441406 C 64.820312 31.035156 64.242188 31.597656 63.6875 32.183594 C 63.445312 32.445312 63.207031 32.71875 63.019531 33.023438 C 62.777344 33.398438 62.835938 33.644531 63.121094 33.992188 C 63.332031 34.25 63.585938 34.453125 63.855469 34.640625 C 64.816406 35.296875 65.769531 35.972656 66.796875 36.539062 C 66.992188 36.648438 67.300781 36.839844 67.480469 36.964844 C 73.511719 41.289062 79.652344 45.453125 85.765625 49.660156 C 86.453125 50.140625 87.144531 50.617188 87.796875 51.136719 C 88.214844 51.46875 88.71875 51.691406 89.15625 52 C 100.296875 59.671875 111.425781 67.347656 122.566406 75.019531 C 135.257812 83.765625 147.945312 92.503906 160.636719 101.242188 C 161.316406 101.707031 162.007812 102.160156 162.6875 102.621094 C 163.832031 103.390625 165.371094 103.980469 166.621094 104.503906 C 168.214844 105.164062 169.871094 105.65625 171.554688 106.027344 C 172.984375 106.34375 174.433594 106.582031 175.863281 106.890625 C 177.367188 107.214844 178.777344 107.757812 180.070312 108.613281 C 185.4375 112.160156 190.964844 115.453125 196.398438 118.894531 C 198.996094 120.546875 201.597656 122.199219 204.191406 123.863281 C 205.457031 124.675781 206.542969 125.707031 207.59375 126.777344 C 208.863281 128.070312 207.394531 130.378906 206.679688 131.605469 Z M 206.664062 131.609375 " fill-opacity="1" fill-rule="nonzero"/></g><path fill="#000000" d="M 11.675781 73.265625 C 11.550781 73.195312 11.441406 73.253906 11.351562 73.328125 C 11.140625 73.511719 11.046875 73.761719 10.933594 74.011719 C 10.5 74.964844 10.164062 75.953125 9.867188 76.953125 C 8.480469 81.652344 7.847656 86.464844 7.875 91.515625 C 7.851562 94.660156 8.128906 97.929688 8.648438 101.175781 C 9.078125 103.859375 9.746094 106.492188 10.46875 109.113281 C 10.523438 109.308594 10.601562 109.507812 10.710938 109.683594 C 10.765625 109.789062 10.90625 109.828125 11.027344 109.765625 C 11.097656 109.726562 11.183594 109.640625 11.1875 109.578125 C 11.199219 109.339844 11.191406 109.097656 11.152344 108.867188 C 10.898438 107.484375 10.636719 106.109375 10.378906 104.730469 C 9.859375 101.910156 9.445312 99.074219 9.253906 96.210938 C 9.03125 92.898438 9.027344 89.589844 9.355469 86.28125 C 9.605469 83.722656 10.007812 81.191406 10.570312 78.679688 C 10.90625 77.164062 11.28125 75.65625 11.714844 74.164062 C 11.769531 73.964844 11.820312 73.761719 11.847656 73.558594 C 11.867188 73.429688 11.792969 73.332031 11.679688 73.265625 Z M 11.675781 73.265625 " fill-opacity="1" fill-rule="nonzero"/><path fill="#000000" d="M 191.265625 123.519531 C 188.378906 121.097656 185.3125 118.910156 182.121094 116.90625 C 177.792969 114.1875 173.554688 111.332031 169.367188 108.40625 C 168.507812 107.808594 167.636719 107.234375 166.765625 106.652344 C 166.636719 106.5625 166.507812 106.46875 166.347656 106.386719 C 166.171875 106.292969 165.988281 106.511719 166.113281 106.667969 C 166.261719 106.84375 166.429688 106.980469 166.578125 107.125 C 167.726562 108.210938 168.972656 109.175781 170.234375 110.121094 C 173.054688 112.238281 175.957031 114.25 178.917969 116.164062 C 182.285156 118.339844 185.636719 120.542969 188.9375 122.824219 C 189.648438 123.316406 190.371094 123.800781 191.085938 124.285156 C 191.234375 124.382812 191.378906 124.507812 191.570312 124.496094 C 191.648438 124.488281 191.742188 124.449219 191.804688 124.394531 C 191.90625 124.308594 191.921875 124.167969 191.835938 124.074219 C 191.660156 123.871094 191.46875 123.683594 191.265625 123.515625 Z M 191.265625 123.519531 " fill-opacity="1" fill-rule="nonzero"/></svg>