<svg xmlns="http://www.w3.org/2000/svg" xmlns:xlink="http://www.w3.org/1999/xlink" width="277" zoomAndPan="magnify" viewBox="0 0 207.75 165.750002" height="221" preserveAspectRatio="xMidYMid meet" version="1.0"><defs><filter x="0%" y="0%" width="100%" height="100%" id="7d28b19870"><feColorMatrix values="0 0 0 0 1 0 0 0 0 1 0 0 0 0 1 0 0 0 1 0" color-interpolation-filters="sRGB"/></filter><mask id="940b3d0175"><g filter="url(#7d28b19870)"><rect x="-20.775" width="249.3" fill="#000000" y="-16.575" height="198.900002" fill-opacity="0.8"/></g></mask><clipPath id="8fd86e3e7c"><path d="M 0.386719 0.199219 L 203.621094 0.199219 L 203.621094 163.390625 L 0.386719 163.390625 Z M 0.386719 0.199219 " clip-rule="nonzero"/></clipPath><clipPath id="ce0d98a93a"><rect x="0" width="204" y="0" height="164"/></clipPath><clipPath id="081ee10372"><path d="M 90 143 L 97 143 L 97 154.292969 L 90 154.292969 Z M 90 143 " clip-rule="nonzero"/></clipPath></defs><g mask="url(#940b3d0175)"><g transform="matrix(1, 0, 0, 1, 3, 1)"><g clip-path="url(#ce0d98a93a)"><g clip-path="url(#8fd86e3e7c)"><path fill="#d9ecf2" d="M 203.699219 67.445312 C 203.644531 57.171875 202.089844 46.84375 198.703125 37.128906 C 195.410156 27.695312 190.628906 18.253906 182.871094 11.714844 C 175.289062 5.320312 165.730469 2.039062 155.816406 2.238281 C 153.621094 2.28125 151.421875 2.5 149.230469 2.765625 C 148.683594 2.667969 148.109375 2.660156 147.535156 2.761719 C 145.941406 3.039062 144.332031 3.222656 142.71875 3.355469 C 141.058594 3.472656 139.382812 3.550781 137.707031 3.644531 C 128.972656 0.695312 119.496094 -0.976562 110.625 1.832031 C 100.964844 4.890625 93.933594 12.894531 90.1875 22.09375 C 87.242188 29.328125 86.742188 37.292969 83.859375 44.550781 C 83.597656 45.203125 83.3125 45.847656 83.007812 46.480469 C 83 46.480469 82.609375 47.222656 82.492188 47.421875 C 82.226562 47.871094 81.941406 48.308594 81.648438 48.738281 C 81.160156 49.457031 80.609375 50.136719 80.03125 50.792969 C 79.894531 50.929688 79.753906 51.0625 79.617188 51.195312 C 79.203125 51.589844 78.769531 51.960938 78.328125 52.320312 C 77.9375 52.636719 77.527344 52.933594 77.117188 53.226562 C 77.015625 53.296875 76.914062 53.367188 76.8125 53.433594 C 76.734375 53.484375 76.65625 53.535156 76.601562 53.566406 C 75.664062 54.121094 74.671875 54.609375 73.699219 55.09375 C 71.800781 56.042969 69.855469 56.902344 67.894531 57.707031 C 65.90625 58.523438 63.890625 59.273438 61.863281 59.988281 C 61.6875 60.050781 61.515625 60.113281 61.339844 60.171875 C 61.328125 60.175781 61.3125 60.179688 61.296875 60.1875 C 60.804688 60.355469 60.308594 60.519531 59.816406 60.683594 C 58.742188 61.039062 57.664062 61.386719 56.585938 61.730469 C 52.429688 63.054688 48.25 64.3125 44.101562 65.667969 C 35.722656 68.40625 27.308594 71.550781 19.945312 76.484375 C 11.734375 81.984375 4.578125 89.695312 1.699219 99.320312 C -1.097656 108.671875 1.375 118.46875 5.847656 126.839844 C 10.210938 135.003906 16.839844 142.066406 24.03125 147.816406 C 32.402344 154.511719 42.023438 159.371094 52.480469 161.773438 C 62.789062 164.144531 73.765625 163.523438 83.894531 160.597656 C 89.277344 159.042969 94.472656 156.941406 99.429688 154.332031 C 104.449219 151.691406 109.144531 148.492188 113.730469 145.164062 C 117.589844 142.355469 121.359375 139.421875 125.226562 136.628906 C 125.253906 136.609375 125.285156 136.585938 125.3125 136.566406 C 125.429688 136.484375 125.652344 136.324219 125.769531 136.246094 C 126.222656 135.929688 126.679688 135.617188 127.136719 135.304688 C 128.117188 134.636719 129.113281 133.984375 130.117188 133.351562 C 132.035156 132.140625 134.003906 131.015625 136.023438 129.988281 C 136.511719 129.742188 137 129.507812 137.492188 129.273438 C 137.699219 129.175781 138.363281 128.882812 138.609375 128.773438 C 139.523438 128.398438 140.453125 128.050781 141.386719 127.730469 C 143.417969 127.027344 145.5 126.472656 147.605469 126.050781 C 147.613281 126.054688 148.738281 125.859375 149.03125 125.820312 C 149.640625 125.734375 150.25 125.664062 150.859375 125.601562 C 152.171875 125.464844 153.488281 125.40625 154.808594 125.34375 C 156.921875 125.246094 159.03125 125.054688 161.128906 124.769531 C 169.367188 123.640625 177.414062 120.984375 184.199219 116.074219 C 190.976562 111.164062 195.894531 104.070312 198.921875 96.328125 C 202.46875 87.246094 203.75 77.148438 203.699219 67.445312 Z M 203.699219 67.445312 " fill-opacity="1" fill-rule="nonzero"/></g></g></g></g><path fill="#1c1c1c" d="M 179.675781 83.484375 C 179.652344 83.484375 179.632812 83.484375 179.605469 83.480469 C 179.605469 83.480469 176.742188 83.242188 172.117188 82.75 C 171.664062 82.699219 171.335938 82.292969 171.382812 81.839844 C 171.429688 81.386719 171.839844 81.0625 172.292969 81.105469 C 175.007812 81.398438 177.117188 81.597656 178.386719 81.714844 L 150.257812 14.855469 C 150.082031 14.433594 150.277344 13.949219 150.699219 13.773438 C 151.117188 13.59375 151.601562 13.792969 151.777344 14.214844 L 180.4375 82.339844 C 180.550781 82.605469 180.515625 82.910156 180.347656 83.144531 C 180.191406 83.359375 179.941406 83.484375 179.679688 83.484375 Z M 179.675781 83.484375 " fill-opacity="1" fill-rule="nonzero"/><path fill="#1c1c1c" d="M 113.847656 145.992188 C 113.796875 145.992188 113.742188 145.988281 113.691406 145.976562 L 18.148438 127.859375 C 17.902344 127.808594 17.691406 127.65625 17.574219 127.4375 C 17.457031 127.214844 17.445312 126.953125 17.542969 126.722656 L 35.898438 83.519531 C 36.078125 83.101562 36.5625 82.90625 36.980469 83.082031 C 37.402344 83.261719 37.597656 83.746094 37.417969 84.164062 L 19.460938 126.425781 L 113.839844 144.324219 L 186.433594 128.703125 C 184.226562 120.316406 165.449219 51.140625 142.265625 31.613281 C 141.917969 31.320312 141.871094 30.800781 142.167969 30.449219 C 142.457031 30.101562 142.980469 30.058594 143.328125 30.351562 C 153.832031 39.199219 164.585938 58.523438 175.292969 87.789062 C 183.246094 109.523438 188.199219 128.933594 188.246094 129.128906 C 188.300781 129.34375 188.265625 129.574219 188.148438 129.765625 C 188.03125 129.957031 187.839844 130.089844 187.621094 130.136719 L 114.019531 145.972656 C 113.964844 145.988281 113.90625 145.992188 113.847656 145.992188 Z M 113.847656 145.992188 " fill-opacity="1" fill-rule="nonzero"/><path fill="#1c1c1c" d="M 113.847656 145.988281 C 113.796875 145.988281 113.746094 145.984375 113.695312 145.972656 L 18.140625 127.859375 C 17.894531 127.808594 17.683594 127.65625 17.566406 127.433594 C 17.449219 127.214844 17.4375 126.953125 17.535156 126.722656 L 22.222656 115.71875 C 22.3125 115.507812 22.484375 115.34375 22.699219 115.269531 C 22.914062 115.191406 23.152344 115.207031 23.355469 115.308594 C 44.210938 125.9375 76.609375 136.3125 112.523438 125.375 C 112.753906 125.304688 113 125.339844 113.199219 125.464844 C 113.402344 125.59375 113.582031 125.703125 113.773438 125.804688 C 136.515625 139.339844 168.875 128.042969 183.933594 117.746094 C 184.152344 117.597656 184.429688 117.5625 184.675781 117.648438 C 184.921875 117.738281 185.117188 117.941406 185.1875 118.199219 C 186.210938 121.714844 187.035156 124.683594 187.574219 126.628906 L 187.6875 127.042969 C 187.726562 127.128906 187.765625 127.292969 187.785156 127.441406 L 188.136719 128.710938 C 188.140625 128.71875 188.179688 128.878906 188.179688 128.886719 L 188.234375 129.109375 C 188.296875 129.328125 188.261719 129.5625 188.144531 129.757812 C 188.027344 129.949219 187.835938 130.089844 187.613281 130.136719 L 114.019531 145.96875 C 113.964844 145.984375 113.90625 145.988281 113.847656 145.988281 Z M 19.457031 126.425781 L 113.839844 144.320312 L 186.429688 128.703125 L 186.171875 127.761719 C 186.164062 127.738281 186.105469 127.507812 186.101562 127.484375 L 185.984375 127.074219 C 185.503906 125.332031 184.796875 122.777344 183.917969 119.742188 C 168.148438 130.085938 135.867188 140.878906 112.96875 127.246094 C 112.867188 127.195312 112.757812 127.132812 112.648438 127.066406 C 76.796875 137.851562 44.472656 127.765625 23.394531 117.179688 Z M 19.457031 126.425781 " fill-opacity="1" fill-rule="nonzero"/><path fill="#1c1c1c" d="M 138.3125 133.65625 C 129.460938 133.65625 120.683594 131.835938 112.96875 127.246094 C 112.71875 127.097656 112.566406 126.832031 112.566406 126.539062 C 112.445312 105.546875 113.570312 89.898438 116.222656 75.800781 C 116.304688 75.351562 116.738281 75.0625 117.183594 75.144531 C 117.632812 75.226562 117.925781 75.660156 117.84375 76.109375 C 115.234375 89.992188 114.113281 105.414062 114.214844 126.0625 C 136.664062 139.074219 168.300781 128.210938 183.464844 118.0625 C 177.019531 95.96875 161.484375 48.503906 142.820312 32.09375 C 142.480469 31.792969 142.445312 31.269531 142.746094 30.929688 C 143.046875 30.585938 143.566406 30.550781 143.910156 30.851562 C 166.453125 50.671875 184.335938 114.460938 187.691406 127.046875 C 187.8125 127.488281 187.550781 127.9375 187.113281 128.058594 C 186.664062 128.175781 186.222656 127.917969 186.101562 127.484375 L 185.988281 127.070312 C 185.503906 125.332031 184.796875 122.777344 183.921875 119.742188 C 173.460938 126.601562 155.742188 133.65625 138.316406 133.65625 Z M 138.3125 133.65625 " fill-opacity="1" fill-rule="nonzero"/><path fill="#1c1c1c" d="M 113.847656 145.988281 C 113.667969 145.988281 113.488281 145.925781 113.34375 145.816406 C 113.152344 145.667969 113.035156 145.4375 113.023438 145.195312 C 112.746094 138.652344 112.589844 132.375 112.566406 126.539062 C 112.566406 126.242188 112.722656 125.96875 112.980469 125.820312 C 113.238281 125.675781 113.554688 125.675781 113.8125 125.828125 C 136.519531 139.339844 168.871094 128.046875 183.933594 117.746094 C 184.152344 117.601562 184.429688 117.5625 184.675781 117.652344 C 184.925781 117.742188 185.117188 117.945312 185.191406 118.199219 C 186.214844 121.71875 187.035156 124.683594 187.574219 126.632812 L 187.6875 127.042969 C 187.726562 127.132812 187.769531 127.292969 187.789062 127.445312 L 188.136719 128.714844 C 188.140625 128.722656 188.179688 128.882812 188.183594 128.890625 L 188.238281 129.113281 C 188.296875 129.332031 188.265625 129.5625 188.148438 129.761719 C 188.03125 129.953125 187.835938 130.089844 187.617188 130.140625 L 114.019531 145.972656 C 113.964844 145.984375 113.90625 145.992188 113.847656 145.992188 Z M 114.222656 127.964844 C 114.265625 133.074219 114.402344 138.507812 114.628906 144.148438 L 186.429688 128.703125 L 186.171875 127.761719 C 186.164062 127.738281 186.105469 127.507812 186.101562 127.484375 L 185.984375 127.074219 C 185.503906 125.332031 184.792969 122.777344 183.917969 119.742188 C 168.433594 129.902344 137.03125 140.488281 114.222656 127.964844 Z M 114.222656 127.964844 " fill-opacity="1" fill-rule="nonzero"/><path fill="#1c1c1c" d="M 53.679688 105.179688 C 52.992188 105.179688 51.886719 105.101562 50.390625 104.761719 C 50.082031 104.6875 49.839844 104.445312 49.773438 104.136719 C 49.699219 103.828125 49.816406 103.503906 50.0625 103.308594 C 51.984375 101.792969 54.761719 92.207031 55.804688 87.804688 C 55.929688 87.265625 56.644531 87.007812 57.097656 87.328125 C 57.9375 87.933594 58.664062 88.335938 58.882812 88.371094 C 59.105469 88.371094 59.296875 88.460938 59.449219 88.617188 C 59.605469 88.777344 59.671875 88.992188 59.664062 89.214844 C 59.605469 91.792969 55.605469 103.289062 55.148438 104.589844 C 55.046875 104.875 54.800781 105.082031 54.5 105.132812 C 54.476562 105.136719 54.195312 105.179688 53.679688 105.179688 Z M 52.109375 103.40625 C 52.855469 103.511719 53.410156 103.535156 53.773438 103.527344 C 54.980469 100.039062 57.503906 92.460938 57.949219 89.78125 C 57.726562 89.679688 57.453125 89.535156 57.117188 89.328125 C 56.347656 92.429688 54.273438 100.101562 52.109375 103.40625 Z M 52.109375 103.40625 " fill-opacity="1" fill-rule="nonzero"/><path fill="#1c1c1c" d="M 56.632812 88.820312 C 56.175781 88.820312 55.800781 88.449219 55.800781 87.992188 C 55.800781 87.539062 56.164062 87.167969 56.621094 87.167969 L 56.632812 87.167969 C 57.089844 87.167969 57.457031 87.539062 57.457031 87.992188 C 57.457031 88.449219 57.089844 88.820312 56.632812 88.820312 Z M 56.632812 88.820312 " fill-opacity="1" fill-rule="nonzero"/><path fill="#1c1c1c" d="M 79.988281 107.761719 C 79.734375 107.761719 79.460938 107.757812 79.175781 107.746094 C 78.859375 107.730469 78.578125 107.535156 78.453125 107.246094 C 78.328125 106.953125 78.382812 106.613281 78.59375 106.375 C 80.117188 104.632812 81.136719 95.457031 81.421875 90.082031 C 81.4375 89.804688 81.589844 89.554688 81.824219 89.417969 C 82.066406 89.277344 82.355469 89.261719 82.601562 89.382812 C 83.386719 89.757812 84.296875 90.085938 84.550781 90.085938 L 84.554688 90.085938 C 84.765625 90.039062 84.976562 90.09375 85.160156 90.222656 C 85.34375 90.351562 85.445312 90.550781 85.480469 90.769531 C 85.886719 93.320312 84.035156 105.347656 83.824219 106.710938 C 83.777344 107.011719 83.570312 107.261719 83.285156 107.363281 C 83.234375 107.382812 82.132812 107.761719 79.984375 107.761719 Z M 83 91.351562 C 82.792969 94.5 82.128906 102.460938 80.613281 106.101562 C 81.375 106.070312 81.925781 105.988281 82.277344 105.917969 C 82.835938 102.265625 83.941406 94.355469 83.894531 91.636719 C 83.609375 91.570312 83.304688 91.46875 83 91.351562 Z M 83 91.351562 " fill-opacity="1" fill-rule="nonzero"/><path fill="#1c1c1c" d="M 150.136719 16.15625 C 149.898438 16.15625 149.65625 16.050781 149.496094 15.847656 C 149.210938 15.492188 149.265625 14.972656 149.625 14.6875 C 156.925781 8.832031 163.15625 3.308594 163.21875 3.253906 C 163.558594 2.953125 164.082031 2.984375 164.382812 3.324219 C 164.683594 3.667969 164.65625 4.1875 164.3125 4.492188 C 164.25 4.546875 157.992188 10.09375 150.652344 15.976562 C 150.5 16.097656 150.320312 16.15625 150.136719 16.15625 Z M 150.136719 16.15625 " fill-opacity="1" fill-rule="nonzero"/><path fill="#1c1c1c" d="M 59.183594 28.722656 C 59.101562 28.722656 59.015625 28.710938 58.933594 28.683594 C 54.75 27.359375 52.25 26.121094 51.894531 25.191406 C 51.730469 24.765625 51.945312 24.289062 52.367188 24.125 C 52.75 23.980469 53.175781 24.136719 53.375 24.476562 C 53.492188 24.609375 54.476562 25.542969 59.433594 27.109375 C 59.867188 27.246094 60.105469 27.710938 59.96875 28.144531 C 59.859375 28.496094 59.535156 28.722656 59.183594 28.722656 Z M 59.183594 28.722656 " fill-opacity="1" fill-rule="nonzero"/><path fill="#1c1c1c" d="M 5.320312 130.332031 C 5.179688 130.332031 5.035156 130.292969 4.90625 130.21875 C 4.511719 129.984375 4.378906 129.480469 4.613281 129.085938 L 32.851562 80.960938 C 33.082031 80.570312 33.585938 80.4375 33.980469 80.667969 C 34.375 80.898438 34.503906 81.40625 34.273438 81.800781 L 6.035156 129.921875 C 5.878906 130.183594 5.605469 130.332031 5.320312 130.332031 Z M 5.320312 130.332031 " fill-opacity="1" fill-rule="nonzero"/><path fill="#1c1c1c" d="M 94.269531 148.90625 C 94.203125 148.90625 94.136719 148.898438 94.066406 148.878906 C 93.625 148.769531 93.359375 148.320312 93.46875 147.878906 L 109.039062 86.109375 C 109.152344 85.667969 109.589844 85.398438 110.039062 85.511719 C 110.480469 85.625 110.75 86.070312 110.636719 86.515625 L 95.066406 148.28125 C 94.972656 148.65625 94.636719 148.90625 94.269531 148.90625 Z M 94.269531 148.90625 " fill-opacity="1" fill-rule="nonzero"/><path fill="#1c1c1c" d="M 84.714844 96.058594 C 84.320312 96.058594 83.972656 95.773438 83.902344 95.371094 C 83.828125 94.921875 84.132812 94.496094 84.582031 94.421875 C 98.179688 92.132812 108.058594 86.417969 109.277344 85.691406 C 110.652344 83.859375 127.128906 61.570312 149.230469 16.316406 C 121.5 29.582031 98.683594 32.324219 84.363281 32.273438 C 70.625 32.214844 61.988281 29.707031 59.574219 28.910156 C 57.234375 33.226562 43.160156 59.261719 32.722656 79.566406 C 39.640625 85.695312 47.257812 90.101562 55.378906 92.660156 C 55.816406 92.796875 56.054688 93.261719 55.917969 93.695312 C 55.78125 94.128906 55.324219 94.371094 54.882812 94.234375 C 46.351562 91.542969 38.363281 86.878906 31.148438 80.367188 C 30.871094 80.117188 30.796875 79.707031 30.964844 79.378906 C 42.355469 57.195312 58.300781 27.800781 58.457031 27.503906 C 58.652344 27.140625 59.09375 26.976562 59.476562 27.125 C 59.839844 27.261719 96.363281 40.582031 150.652344 13.792969 C 150.964844 13.636719 151.34375 13.699219 151.597656 13.945312 C 151.847656 14.195312 151.910156 14.574219 151.757812 14.890625 C 128.167969 63.574219 110.664062 86.589844 110.492188 86.816406 C 110.433594 86.894531 110.359375 86.960938 110.273438 87.011719 C 110.171875 87.078125 99.65625 93.558594 84.851562 96.046875 C 84.808594 96.054688 84.761719 96.058594 84.714844 96.058594 Z M 84.714844 96.058594 " fill-opacity="1" fill-rule="nonzero"/><path fill="#1c1c1c" d="M 73.347656 97.027344 C 67.886719 97.027344 62.570312 96.34375 57.460938 94.984375 C 57.019531 94.867188 56.757812 94.414062 56.875 93.972656 C 56.992188 93.53125 57.441406 93.269531 57.882812 93.386719 C 65.425781 95.398438 73.4375 95.886719 81.699219 94.84375 C 82.140625 94.773438 82.5625 95.105469 82.617188 95.558594 C 82.675781 96.007812 82.355469 96.421875 81.90625 96.480469 C 79.023438 96.84375 76.167969 97.027344 73.347656 97.027344 Z M 73.347656 97.027344 " fill-opacity="1" fill-rule="nonzero"/><path fill="#1c1c1c" d="M 83.839844 81.074219 C 79.585938 81.074219 69.671875 80.882812 58.867188 79.359375 C 58.476562 79.304688 58.179688 78.984375 58.15625 78.589844 C 58.136719 78.195312 58.394531 77.84375 58.773438 77.746094 C 59.960938 77.4375 62.035156 75.34375 65.199219 67.121094 C 65.363281 66.695312 65.847656 66.484375 66.265625 66.648438 C 66.691406 66.8125 66.902344 67.289062 66.738281 67.714844 C 64.742188 72.910156 62.953125 76.277344 61.253906 78.011719 C 72.667969 79.457031 82.679688 79.453125 85.3125 79.414062 C 85.851562 76.199219 88.179688 62.347656 89.253906 56.191406 C 89.332031 55.742188 89.757812 55.449219 90.207031 55.519531 C 90.65625 55.601562 90.957031 56.027344 90.878906 56.476562 C 89.660156 63.464844 86.824219 80.367188 86.824219 80.367188 C 86.757812 80.753906 86.429688 81.042969 86.035156 81.054688 C 86.003906 81.054688 85.214844 81.074219 83.839844 81.074219 Z M 83.839844 81.074219 " fill-opacity="1" fill-rule="nonzero"/><path fill="#1c1c1c" d="M 81.835938 68.757812 C 77.582031 68.757812 67.667969 68.566406 56.863281 67.042969 C 56.472656 66.988281 56.175781 66.667969 56.152344 66.273438 C 56.132812 65.882812 56.390625 65.527344 56.769531 65.429688 C 61.292969 64.257812 69.121094 55.570312 69.199219 55.484375 C 69.429688 55.222656 69.796875 55.136719 70.117188 55.265625 C 70.183594 55.292969 76.476562 57.707031 89.933594 55.519531 C 90.203125 55.472656 90.464844 55.5625 90.652344 55.753906 C 90.839844 55.941406 90.925781 56.210938 90.878906 56.476562 C 89.625 63.648438 84.78125 68.316406 84.574219 68.511719 C 84.425781 68.652344 84.230469 68.730469 84.027344 68.738281 C 84 68.738281 83.210938 68.757812 81.835938 68.757812 Z M 59.953125 65.785156 C 71.660156 67.210938 81.734375 67.125 83.65625 67.09375 C 84.527344 66.183594 87.769531 62.519531 89.019531 57.332031 C 77.910156 58.972656 71.839844 57.539062 70.0625 56.988281 C 68.714844 58.441406 64.046875 63.347656 59.953125 65.785156 Z M 59.953125 65.785156 " fill-opacity="1" fill-rule="nonzero"/><path fill="#1c1c1c" d="M 133.667969 141.726562 C 133.503906 141.726562 133.335938 141.675781 133.195312 141.578125 C 133.011719 141.445312 132.882812 141.242188 132.851562 141.015625 C 129.640625 117.796875 123.746094 63.257812 138.324219 58.339844 C 139.160156 58.117188 139.945312 58.003906 140.722656 57.992188 C 140.78125 57.992188 140.839844 57.992188 140.894531 57.992188 C 158.84375 57.992188 172.066406 109.421875 176.929688 131.59375 C 176.976562 131.808594 176.9375 132.03125 176.820312 132.214844 C 176.699219 132.398438 176.515625 132.53125 176.300781 132.578125 L 133.84375 141.710938 C 133.785156 141.722656 133.726562 141.730469 133.667969 141.730469 Z M 140.898438 59.640625 C 140.851562 59.640625 140.800781 59.640625 140.75 59.640625 C 140.109375 59.652344 139.453125 59.746094 138.796875 59.917969 C 133.183594 61.8125 130.316406 73.667969 130.554688 94.183594 C 130.746094 110.945312 132.96875 129.683594 134.367188 139.90625 L 175.140625 131.132812 C 171.179688 113.265625 157.851562 59.640625 140.902344 59.640625 Z M 140.898438 59.640625 " fill-opacity="1" fill-rule="nonzero"/><path fill="#1c1c1c" d="M 140.757812 59.644531 C 140.304688 59.644531 139.929688 59.273438 139.929688 58.816406 C 139.929688 58.363281 140.292969 57.992188 140.75 57.992188 L 140.761719 57.992188 C 141.214844 57.992188 141.585938 58.363281 141.585938 58.816406 C 141.585938 59.273438 141.214844 59.644531 140.761719 59.644531 Z M 140.757812 59.644531 " fill-opacity="1" fill-rule="nonzero"/><path fill="#1c1c1c" d="M 137.339844 140.9375 C 137.175781 140.9375 137.011719 140.886719 136.875 140.792969 C 136.6875 140.660156 136.5625 140.460938 136.527344 140.238281 L 136.464844 139.839844 C 133.835938 123.046875 125.832031 71.9375 137.65625 62.148438 C 138.929688 61.09375 141.25 60.671875 143.710938 61.039062 C 156.894531 63.023438 171.5 115.71875 174.335938 132.183594 C 174.414062 132.621094 174.128906 133.039062 173.699219 133.132812 L 137.511719 140.914062 C 137.457031 140.929688 137.398438 140.933594 137.339844 140.933594 Z M 141.992188 62.5625 C 140.457031 62.5625 139.28125 62.949219 138.707031 63.425781 C 131.367188 69.5 131.136719 94.96875 138.019531 139.121094 L 172.574219 131.6875 C 168.8125 110.78125 154.328125 64.308594 143.46875 62.671875 C 142.945312 62.59375 142.453125 62.558594 141.992188 62.558594 Z M 141.992188 62.5625 " fill-opacity="1" fill-rule="nonzero"/><path fill="#1c1c1c" d="M 139.269531 102.910156 C 139.105469 102.910156 138.9375 102.859375 138.800781 102.761719 C 138.617188 102.632812 138.488281 102.429688 138.457031 102.207031 L 136.519531 89.519531 C 136.453125 89.082031 136.738281 88.671875 137.171875 88.585938 L 153.945312 85.148438 C 154.363281 85.058594 154.796875 85.320312 154.910156 85.746094 L 158.136719 98.058594 C 158.191406 98.277344 158.160156 98.511719 158.039062 98.703125 C 157.921875 98.894531 157.730469 99.03125 157.507812 99.078125 L 139.441406 102.890625 C 139.386719 102.902344 139.328125 102.910156 139.273438 102.910156 Z M 138.269531 90.042969 L 139.953125 101.09375 L 156.316406 97.640625 L 153.507812 86.921875 L 138.265625 90.042969 Z M 138.269531 90.042969 " fill-opacity="1" fill-rule="nonzero"/><path fill="#1c1c1c" d="M 199.308594 128.21875 C 198.992188 128.21875 198.691406 128.035156 198.554688 127.726562 L 178.921875 82.988281 C 178.738281 82.570312 178.929688 82.082031 179.34375 81.902344 C 179.757812 81.714844 180.246094 81.90625 180.429688 82.324219 L 200.0625 127.0625 C 200.246094 127.480469 200.054688 127.96875 199.640625 128.148438 C 199.53125 128.199219 199.417969 128.21875 199.308594 128.21875 Z M 199.308594 128.21875 " fill-opacity="1" fill-rule="nonzero"/><path fill="#1c1c1c" d="M 3.550781 134.988281 C 3.199219 134.988281 2.882812 134.765625 2.769531 134.425781 C 1.667969 131.136719 0.09375 125.445312 1.90625 124.238281 C 2.265625 124 2.679688 123.957031 3.085938 124.117188 C 4.75 124.785156 6.230469 130.273438 6.964844 133.484375 C 7.015625 133.703125 6.972656 133.929688 6.851562 134.117188 C 6.726562 134.304688 6.535156 134.4375 6.3125 134.476562 L 3.703125 134.972656 C 3.652344 134.984375 3.601562 134.988281 3.550781 134.988281 Z M 2.722656 125.945312 C 2.546875 127.054688 3.121094 130.09375 4.109375 133.214844 L 5.160156 133.015625 C 4.375 129.804688 3.371094 126.914062 2.722656 125.949219 Z M 2.363281 124.925781 L 2.375 124.925781 Z M 2.363281 124.925781 " fill-opacity="1" fill-rule="nonzero"/><g clip-path="url(#081ee10372)"><path fill="#1c1c1c" d="M 92.644531 154.34375 C 92.292969 154.34375 91.976562 154.121094 91.863281 153.78125 C 90.761719 150.496094 89.1875 144.800781 91 143.59375 C 91.359375 143.355469 91.773438 143.3125 92.179688 143.476562 C 93.84375 144.140625 95.324219 149.628906 96.058594 152.839844 C 96.109375 153.058594 96.066406 153.289062 95.945312 153.472656 C 95.820312 153.660156 95.628906 153.792969 95.410156 153.832031 L 92.796875 154.328125 C 92.746094 154.339844 92.695312 154.34375 92.644531 154.34375 Z M 91.816406 145.304688 C 91.644531 146.410156 92.214844 149.449219 93.203125 152.574219 L 94.253906 152.375 C 93.46875 149.164062 92.464844 146.269531 91.816406 145.304688 Z M 91.816406 145.304688 " fill-opacity="1" fill-rule="nonzero"/></g><path fill="#1c1c1c" d="M 201.316406 132.3125 C 201.265625 132.3125 201.214844 132.308594 201.164062 132.296875 L 198.550781 131.804688 C 198.332031 131.761719 198.140625 131.632812 198.015625 131.445312 C 197.894531 131.257812 197.851562 131.027344 197.902344 130.808594 C 198.636719 127.597656 200.117188 122.109375 201.78125 121.445312 C 202.183594 121.28125 202.601562 121.328125 202.960938 121.5625 C 204.773438 122.769531 203.199219 128.464844 202.097656 131.75 C 201.984375 132.089844 201.667969 132.3125 201.316406 132.3125 Z M 199.707031 130.34375 L 200.757812 130.542969 C 201.742188 127.417969 202.316406 124.378906 202.144531 123.273438 C 201.492188 124.242188 200.492188 127.132812 199.707031 130.34375 Z M 199.707031 130.34375 " fill-opacity="1" fill-rule="nonzero"/><path fill="#1c1c1c" d="M 76.101562 36.238281 C 72.601562 36.238281 69.070312 35.675781 65.769531 34.578125 C 65.519531 34.496094 65.382812 34.226562 65.46875 33.972656 C 65.546875 33.726562 65.820312 33.585938 66.070312 33.671875 C 69.890625 34.941406 74.03125 35.484375 78.050781 35.226562 C 78.3125 35.1875 78.539062 35.410156 78.554688 35.671875 C 78.574219 35.933594 78.375 36.160156 78.109375 36.175781 C 77.445312 36.21875 76.769531 36.238281 76.097656 36.238281 Z M 76.101562 36.238281 " fill-opacity="1" fill-rule="nonzero"/><path fill="#1c1c1c" d="M 81.9375 36.027344 C 81.710938 36.027344 81.507812 35.863281 81.46875 35.632812 C 81.425781 35.371094 81.601562 35.128906 81.859375 35.082031 L 82.875 34.910156 C 83.144531 34.863281 83.382812 35.042969 83.425781 35.300781 C 83.46875 35.558594 83.296875 35.804688 83.039062 35.851562 L 82.019531 36.023438 C 81.992188 36.027344 81.964844 36.03125 81.941406 36.03125 Z M 81.9375 36.027344 " fill-opacity="1" fill-rule="nonzero"/><path fill="#1c1c1c" d="M 135.214844 27.753906 C 135.015625 27.753906 134.828125 27.628906 134.765625 27.429688 C 134.683594 27.179688 134.816406 26.910156 135.066406 26.828125 L 140.886719 24.886719 C 141.136719 24.796875 141.40625 24.9375 141.488281 25.1875 C 141.570312 25.4375 141.4375 25.707031 141.1875 25.789062 L 135.367188 27.730469 C 135.316406 27.746094 135.265625 27.753906 135.214844 27.753906 Z M 135.214844 27.753906 " fill-opacity="1" fill-rule="nonzero"/><path fill="#1c1c1c" d="M 80.828125 61.023438 C 76.601562 61.023438 72.375 60.402344 68.328125 59.164062 C 68.078125 59.085938 67.933594 58.820312 68.011719 58.570312 C 68.085938 58.320312 68.355469 58.171875 68.605469 58.253906 C 74.964844 60.195312 81.78125 60.589844 88.316406 59.394531 C 88.582031 59.351562 88.824219 59.519531 88.871094 59.777344 C 88.917969 60.035156 88.746094 60.28125 88.488281 60.332031 C 85.960938 60.792969 83.394531 61.023438 80.828125 61.023438 Z M 80.828125 61.023438 " fill-opacity="1" fill-rule="nonzero"/><path fill="#1c1c1c" d="M 97.140625 96.289062 C 96.945312 96.289062 96.757812 96.164062 96.691406 95.972656 C 96.601562 95.722656 96.730469 95.453125 96.980469 95.363281 L 103.890625 92.894531 C 104.140625 92.808594 104.410156 92.933594 104.496094 93.183594 C 104.585938 93.433594 104.457031 93.703125 104.207031 93.792969 L 97.296875 96.261719 C 97.246094 96.28125 97.191406 96.289062 97.136719 96.289062 Z M 97.140625 96.289062 " fill-opacity="1" fill-rule="nonzero"/><path fill="#1c1c1c" d="M 106.464844 92.796875 C 106.285156 92.796875 106.113281 92.695312 106.03125 92.519531 C 105.921875 92.28125 106.023438 92 106.261719 91.886719 L 108.808594 90.695312 C 109.046875 90.589844 109.328125 90.6875 109.441406 90.925781 C 109.550781 91.164062 109.449219 91.449219 109.210938 91.558594 L 106.664062 92.75 C 106.597656 92.78125 106.53125 92.796875 106.464844 92.796875 Z M 106.464844 92.796875 " fill-opacity="1" fill-rule="nonzero"/><path fill="#1c1c1c" d="M 138.375 92.945312 C 138.128906 92.945312 137.921875 92.753906 137.902344 92.503906 C 137.882812 92.238281 138.082031 92.011719 138.34375 91.992188 C 143.78125 91.609375 149.09375 90.355469 154.132812 88.265625 C 154.375 88.164062 154.652344 88.28125 154.753906 88.523438 C 154.855469 88.765625 154.738281 89.046875 154.496094 89.144531 C 149.363281 91.273438 143.953125 92.554688 138.410156 92.941406 C 138.398438 92.941406 138.386719 92.941406 138.375 92.941406 Z M 138.375 92.945312 " fill-opacity="1" fill-rule="nonzero"/><path fill="#1c1c1c" d="M 150.339844 46.945312 C 150.175781 46.945312 150.019531 46.863281 149.929688 46.710938 C 148.152344 43.664062 145.726562 40.933594 142.910156 38.816406 C 142.699219 38.660156 142.660156 38.359375 142.816406 38.148438 C 142.972656 37.9375 143.273438 37.898438 143.484375 38.054688 C 146.398438 40.25 148.910156 43.074219 150.75 46.230469 C 150.882812 46.457031 150.808594 46.75 150.582031 46.882812 C 150.503906 46.925781 150.421875 46.945312 150.339844 46.945312 Z M 150.339844 46.945312 " fill-opacity="1" fill-rule="nonzero"/><path fill="#1c1c1c" d="M 151.949219 49.851562 C 151.769531 49.851562 151.597656 49.75 151.519531 49.578125 L 151.101562 48.695312 C 150.988281 48.457031 151.089844 48.171875 151.328125 48.058594 C 151.566406 47.949219 151.851562 48.050781 151.960938 48.289062 L 152.378906 49.171875 C 152.492188 49.410156 152.390625 49.691406 152.152344 49.804688 C 152.085938 49.835938 152.015625 49.851562 151.949219 49.851562 Z M 151.949219 49.851562 " fill-opacity="1" fill-rule="nonzero"/></svg>