<svg xmlns="http://www.w3.org/2000/svg" xmlns:xlink="http://www.w3.org/1999/xlink" width="44" zoomAndPan="magnify" viewBox="0 0 33 32.999998" height="44" preserveAspectRatio="xMidYMid meet" version="1.0"><path fill="#000000" d="M 27.585938 27.277344 C 27.394531 27.320312 27.246094 27.472656 27.199219 27.660156 L 26.320312 31.472656 L 19.050781 24.203125 L 19.519531 23.75 C 19.753906 23.523438 20.089844 23.414062 20.414062 23.460938 L 22.53125 23.761719 C 23.65625 23.917969 24.691406 23.164062 24.886719 22.046875 L 25.207031 20.214844 L 31.394531 26.398438 Z M 15.78125 24.5 L 15.09375 23.832031 L 14.242188 23.015625 C 13.847656 22.632812 13.332031 22.421875 12.792969 22.421875 C 12.691406 22.421875 12.59375 22.429688 12.496094 22.445312 L 10.378906 22.742188 C 9.800781 22.828125 9.273438 22.441406 9.171875 21.867188 L 8.804688 19.761719 C 8.761719 19.519531 8.664062 19.292969 8.546875 19.085938 C 8.535156 19.058594 8.519531 19.039062 8.503906 19.015625 C 8.3125 18.707031 8.050781 18.449219 7.722656 18.273438 L 5.832031 17.273438 C 5.320312 17 5.117188 16.378906 5.371094 15.855469 L 6.3125 13.9375 C 6.597656 13.351562 6.597656 12.679688 6.3125 12.09375 L 5.371094 10.175781 C 5.117188 9.652344 5.320312 9.03125 5.832031 8.757812 L 7.722656 7.757812 C 8.296875 7.453125 8.691406 6.910156 8.804688 6.269531 L 9.171875 4.164062 C 9.273438 3.589844 9.800781 3.203125 10.378906 3.289062 L 12.496094 3.585938 C 13.140625 3.679688 13.777344 3.46875 14.242188 3.015625 L 15.78125 1.53125 C 16.199219 1.125 16.855469 1.125 17.269531 1.53125 L 18.808594 3.015625 C 19.273438 3.46875 19.914062 3.679688 20.558594 3.585938 L 22.671875 3.289062 C 23.25 3.203125 23.777344 3.589844 23.878906 4.164062 L 24.246094 6.269531 C 24.359375 6.910156 24.753906 7.453125 25.328125 7.757812 L 27.21875 8.757812 C 27.730469 9.03125 27.933594 9.652344 27.679688 10.175781 L 26.738281 12.09375 C 26.453125 12.679688 26.453125 13.351562 26.738281 13.9375 L 27.679688 15.855469 C 27.933594 16.378906 27.730469 17 27.21875 17.273438 L 25.328125 18.273438 C 24.753906 18.578125 24.359375 19.121094 24.246094 19.761719 L 23.878906 21.867188 C 23.777344 22.441406 23.25 22.828125 22.671875 22.742188 L 20.558594 22.445312 C 19.910156 22.351562 19.273438 22.5625 18.808594 23.015625 L 17.269531 24.5 C 16.851562 24.90625 16.199219 24.90625 15.78125 24.5 Z M 6.730469 31.472656 L 5.851562 27.660156 C 5.808594 27.472656 5.65625 27.320312 5.464844 27.277344 L 1.65625 26.398438 L 7.84375 20.214844 L 8.164062 22.046875 C 8.359375 23.164062 9.394531 23.914062 10.519531 23.761719 L 12.636719 23.460938 C 12.960938 23.414062 13.296875 23.523438 13.53125 23.75 L 14 24.203125 Z M 32.773438 26.328125 L 25.703125 19.253906 C 25.738281 19.230469 25.769531 19.199219 25.808594 19.179688 L 27.699219 18.179688 C 28.703125 17.644531 29.097656 16.425781 28.597656 15.40625 L 27.660156 13.484375 C 27.515625 13.1875 27.515625 12.84375 27.660156 12.546875 L 28.597656 10.625 C 29.097656 9.605469 28.703125 8.386719 27.699219 7.851562 L 25.808594 6.851562 C 25.515625 6.695312 25.316406 6.417969 25.257812 6.089844 L 24.886719 3.984375 C 24.691406 2.863281 23.65625 2.113281 22.53125 2.269531 L 20.414062 2.570312 C 20.089844 2.617188 19.753906 2.507812 19.519531 2.28125 L 17.984375 0.796875 C 17.167969 0.00390625 15.886719 0.00390625 15.070312 0.796875 L 13.53125 2.28125 C 13.296875 2.507812 12.960938 2.617188 12.636719 2.570312 L 10.519531 2.269531 C 9.390625 2.113281 8.359375 2.863281 8.164062 3.984375 L 7.792969 6.089844 C 7.738281 6.417969 7.535156 6.695312 7.242188 6.851562 L 5.351562 7.851562 C 4.347656 8.386719 3.953125 9.605469 4.453125 10.625 L 5.390625 12.546875 C 5.535156 12.84375 5.535156 13.1875 5.390625 13.484375 L 4.453125 15.40625 C 3.953125 16.425781 4.347656 17.644531 5.351562 18.179688 L 7.242188 19.179688 C 7.28125 19.199219 7.3125 19.230469 7.351562 19.253906 L 0.277344 26.328125 C 0.144531 26.457031 0.0976562 26.652344 0.148438 26.832031 C 0.199219 27.011719 0.34375 27.148438 0.527344 27.1875 L 4.925781 28.203125 L 5.9375 32.601562 C 5.980469 32.785156 6.117188 32.929688 6.296875 32.980469 C 6.34375 32.992188 6.390625 33 6.4375 33 C 6.570312 33 6.703125 32.949219 6.800781 32.851562 L 14.734375 24.914062 L 15.070312 25.234375 C 15.476562 25.632812 16 25.832031 16.527344 25.832031 C 17.050781 25.832031 17.574219 25.632812 17.984375 25.234375 L 18.316406 24.914062 L 26.25 32.851562 C 26.347656 32.949219 26.480469 33 26.613281 33 C 26.660156 33 26.707031 32.992188 26.753906 32.980469 C 26.933594 32.929688 27.070312 32.785156 27.113281 32.601562 L 28.128906 28.203125 L 32.523438 27.1875 C 32.707031 27.148438 32.851562 27.011719 32.902344 26.832031 C 32.957031 26.652344 32.90625 26.457031 32.773438 26.328125 " fill-opacity="1" fill-rule="nonzero"/><path fill="#000000" d="M 24.210938 13.015625 C 24.210938 11.175781 23.550781 9.390625 22.351562 8 C 22.167969 7.789062 21.84375 7.761719 21.628906 7.949219 C 21.414062 8.132812 21.390625 8.457031 21.574219 8.671875 C 22.613281 9.875 23.1875 11.421875 23.1875 13.015625 C 23.1875 16.6875 20.199219 19.675781 16.527344 19.675781 C 12.851562 19.675781 9.863281 16.6875 9.863281 13.015625 C 9.863281 9.34375 12.851562 6.355469 16.527344 6.355469 C 17.851562 6.355469 19.132812 6.742188 20.230469 7.480469 C 20.46875 7.636719 20.78125 7.574219 20.941406 7.339844 C 21.097656 7.105469 21.035156 6.785156 20.800781 6.628906 C 19.535156 5.777344 18.058594 5.328125 16.527344 5.328125 C 12.289062 5.328125 8.839844 8.777344 8.839844 13.015625 C 8.839844 17.253906 12.289062 20.703125 16.527344 20.703125 C 20.761719 20.703125 24.210938 17.253906 24.210938 13.015625 " fill-opacity="1" fill-rule="nonzero"/><path fill="#000000" d="M 19.484375 10.613281 L 15.492188 14.820312 L 13.578125 12.640625 C 13.394531 12.425781 13.070312 12.40625 12.855469 12.589844 C 12.644531 12.777344 12.621094 13.101562 12.8125 13.316406 L 15.09375 15.914062 C 15.1875 16.023438 15.324219 16.085938 15.464844 16.089844 L 15.476562 16.089844 C 15.617188 16.089844 15.753906 16.03125 15.847656 15.929688 L 20.230469 11.316406 C 20.421875 11.113281 20.414062 10.789062 20.207031 10.59375 C 20.003906 10.398438 19.679688 10.40625 19.484375 10.613281 " fill-opacity="1" fill-rule="nonzero"/></svg>