<svg xmlns="http://www.w3.org/2000/svg" xmlns:xlink="http://www.w3.org/1999/xlink" width="50" zoomAndPan="magnify" viewBox="0 0 37.5 45.749999" height="61" preserveAspectRatio="xMidYMid meet" version="1.0"><defs><clipPath id="765d63280b"><path d="M 0 0.175781 L 31 0.175781 L 31 34 L 0 34 Z M 0 0.175781 " clip-rule="nonzero"/></clipPath><clipPath id="eca84ffe8b"><path d="M 6 11 L 37 11 L 37 44.585938 L 6 44.585938 Z M 6 11 " clip-rule="nonzero"/></clipPath></defs><path fill="#000000" d="M 19.113281 34.136719 L 18.910156 34.101562 L 7.507812 29.453125 C 7.316406 29.371094 7.1875 29.1875 7.1875 28.980469 L 7.1875 15.878906 C 7.1875 15.671875 7.3125 15.496094 7.496094 15.414062 L 17.613281 10.644531 C 17.722656 10.589844 17.851562 10.578125 17.96875 10.613281 L 29.175781 13.773438 C 29.394531 13.835938 29.542969 14.03125 29.546875 14.261719 L 29.816406 27.367188 C 29.816406 27.546875 29.726562 27.714844 29.570312 27.8125 L 19.386719 34.058594 Z M 8.210938 28.640625 L 18.597656 32.875 L 18.535156 20.144531 C 17.011719 19.601562 10.730469 17.367188 8.210938 16.566406 Z M 19.558594 20.082031 L 19.613281 32.722656 L 28.789062 27.097656 L 28.542969 15.117188 L 24.558594 17.320312 L 24.617188 20.214844 C 24.628906 20.882812 23.609375 20.90625 23.59375 20.234375 L 23.546875 17.878906 Z M 9.09375 15.78125 C 12.003906 16.738281 17.777344 18.792969 19.003906 19.226562 L 22.835938 17.105469 L 13.699219 13.617188 Z M 14.972656 13.011719 L 24 16.464844 L 27.703125 14.414062 L 17.875 11.644531 Z M 14.972656 13.011719 " fill-opacity="1" fill-rule="evenodd"/><g clip-path="url(#765d63280b)"><path fill="#000000" d="M 4.273438 33.167969 C 4.121094 33.167969 3.972656 33.097656 3.871094 32.972656 C 1.339844 29.75 0.0078125 25.875 0.0078125 21.773438 C 0.0078125 5.8125 15.875 0.175781 28.800781 6.351562 L 25.953125 1.441406 C 25.617188 0.859375 26.496094 0.355469 26.835938 0.933594 L 30.601562 7.441406 C 30.6875 7.636719 30.558594 7.863281 30.558594 7.863281 L 30.558594 7.871094 C 30.472656 8.015625 30.324219 8.101562 30.160156 8.121094 L 22.792969 8.859375 C 22.125 8.925781 22.019531 7.914062 22.6875 7.84375 L 28.371094 7.277344 C 21.808594 4.148438 14.269531 4.128906 8.757812 7.332031 C 3.773438 10.222656 1.023438 15.355469 1.023438 21.773438 C 1.023438 25.644531 2.289062 29.300781 4.679688 32.347656 C 4.941406 32.683594 4.691406 33.167969 4.273438 33.167969 Z M 4.273438 33.167969 " fill-opacity="1" fill-rule="evenodd"/></g><g clip-path="url(#eca84ffe8b)"><path fill="#000000" d="M 10.613281 44.054688 C 10.441406 44.054688 10.269531 43.964844 10.171875 43.796875 L 6.410156 37.296875 C 6.296875 36.980469 6.507812 36.644531 6.847656 36.613281 L 14.214844 35.875 C 14.882812 35.808594 14.984375 36.820312 14.316406 36.886719 L 8.640625 37.453125 C 14.796875 40.394531 22.414062 40.792969 28.25 37.398438 C 33.234375 34.507812 35.984375 29.378906 35.984375 22.960938 C 35.984375 19.085938 34.714844 15.433594 32.328125 12.390625 C 32.15625 12.164062 32.191406 11.847656 32.417969 11.675781 C 32.640625 11.5 32.957031 11.542969 33.136719 11.761719 C 35.664062 14.988281 37 18.855469 37 22.960938 C 37 38.859375 21.199219 44.585938 8.210938 38.382812 L 11.054688 43.292969 C 11.253906 43.632812 11.003906 44.054688 10.613281 44.054688 Z M 10.613281 44.054688 " fill-opacity="1" fill-rule="evenodd"/></g></svg>