<svg xmlns="http://www.w3.org/2000/svg" xmlns:xlink="http://www.w3.org/1999/xlink" width="54" zoomAndPan="magnify" viewBox="0 0 40.5 31.5" height="42" preserveAspectRatio="xMidYMid meet" version="1.0"><defs><clipPath id="db4644c5a4"><path d="M 0.0703125 0 L 39.9375 0 L 39.9375 30.269531 L 0.0703125 30.269531 Z M 0.0703125 0 " clip-rule="nonzero"/></clipPath><clipPath id="b0a058d4ad"><path d="M 0.0703125 20 L 11 20 L 11 22 L 0.0703125 22 Z M 0.0703125 20 " clip-rule="nonzero"/></clipPath></defs><path fill="#000000" d="M 18.675781 26.320312 L 16.019531 26.320312 L 16.019531 24.347656 L 18.675781 24.347656 Z M 19.339844 23.03125 L 15.355469 23.03125 C 14.988281 23.03125 14.691406 23.328125 14.691406 23.6875 L 14.691406 26.980469 C 14.691406 27.34375 14.988281 27.636719 15.355469 27.636719 L 19.339844 27.636719 C 19.707031 27.636719 20.003906 27.34375 20.003906 26.980469 L 20.003906 23.6875 C 20.003906 23.328125 19.707031 23.03125 19.339844 23.03125 " fill-opacity="1" fill-rule="nonzero"/><path fill="#000000" d="M 33.285156 23.6875 L 31.957031 23.6875 L 31.957031 25.003906 L 33.285156 25.003906 L 33.285156 23.6875 " fill-opacity="1" fill-rule="nonzero"/><path fill="#000000" d="M 37.269531 23.6875 L 34.613281 23.6875 L 34.613281 25.003906 L 37.269531 25.003906 L 37.269531 23.6875 " fill-opacity="1" fill-rule="nonzero"/><path fill="#000000" d="M 37.269531 27.636719 L 37.269531 26.320312 L 31.957031 26.320312 L 31.957031 27.636719 L 37.269531 27.636719 " fill-opacity="1" fill-rule="nonzero"/><g clip-path="url(#db4644c5a4)"><path fill="#000000" d="M 38.597656 28.953125 L 13.363281 28.953125 L 13.363281 13.160156 L 17.347656 13.160156 L 17.347656 11.84375 L 13.363281 11.84375 L 13.363281 10.527344 L 17.347656 10.527344 L 17.347656 9.210938 L 13.363281 9.210938 L 13.363281 6.582031 L 22.660156 6.582031 L 22.660156 15.136719 C 22.660156 15.496094 22.957031 15.792969 23.324219 15.792969 L 28.636719 15.792969 C 29.003906 15.792969 29.300781 15.496094 29.300781 15.136719 L 29.300781 6.582031 L 38.597656 6.582031 Z M 15.765625 1.316406 L 23.234375 1.316406 L 22.738281 5.265625 L 13.773438 5.265625 Z M 27.386719 1.316406 L 27.882812 5.265625 L 24.078125 5.265625 L 24.574219 1.316406 Z M 23.988281 6.582031 L 27.972656 6.582031 L 27.972656 14.476562 L 23.988281 14.476562 Z M 38.1875 5.265625 L 29.222656 5.265625 L 28.726562 1.316406 L 36.195312 1.316406 Z M 39.878906 5.695312 C 39.875 5.679688 39.871094 5.664062 39.863281 5.652344 C 39.859375 5.644531 39.859375 5.636719 39.855469 5.625 L 37.199219 0.363281 C 37.085938 0.140625 36.855469 0 36.605469 0 L 15.355469 0 C 15.105469 0 14.875 0.140625 14.761719 0.363281 L 12.105469 5.625 C 12.101562 5.636719 12.101562 5.644531 12.097656 5.652344 C 12.089844 5.664062 12.085938 5.679688 12.082031 5.695312 C 12.054688 5.761719 12.042969 5.828125 12.039062 5.898438 C 12.039062 5.90625 12.035156 5.914062 12.035156 5.921875 L 12.035156 9.210938 L 0.0820312 9.210938 L 0.0820312 10.527344 L 12.035156 10.527344 L 12.035156 11.84375 L 2.738281 11.84375 L 2.738281 13.160156 L 12.035156 13.160156 L 12.035156 29.613281 C 12.035156 29.972656 12.332031 30.269531 12.699219 30.269531 L 39.261719 30.269531 C 39.628906 30.269531 39.925781 29.972656 39.925781 29.613281 L 39.925781 5.921875 C 39.925781 5.914062 39.921875 5.90625 39.921875 5.898438 C 39.917969 5.828125 39.90625 5.761719 39.878906 5.695312 " fill-opacity="1" fill-rule="nonzero"/></g><g clip-path="url(#b0a058d4ad)"><path fill="#000000" d="M 10.707031 20.398438 L 0.0820312 20.398438 L 0.0820312 21.714844 L 10.707031 21.714844 L 10.707031 20.398438 " fill-opacity="1" fill-rule="nonzero"/></g><path fill="#000000" d="M 10.707031 24.347656 L 10.707031 23.03125 L 2.738281 23.03125 L 2.738281 24.347656 L 10.707031 24.347656 " fill-opacity="1" fill-rule="nonzero"/></svg>